<svg xmlns="http://www.w3.org/2000/svg" viewBox="-66 -84 132 122" width="319" height="295" stroke-linejoin="round" xmlns:c2pa="http://c2pa.org/manifest"><metadata><c2pa:manifest>AAAWgmp1bWIAAAAeanVtZGMycGEAEQAQgAAAqgA4m3EDYzJwYQAAABZcanVtYgAAAEdqdW1kYzJtYQARABCAAACqADibcQN1cm46YzJwYTo3NzNkOTcwOS00ZDEwLTQzODUtYjc2Ny01ZDUwMTFkZDM4OWQAAAADl2p1bWIAAAApanVtZGMyYXMAEQAQgAAAqgA4m3EDYzJwYS5hc3NlcnRpb25zAAAAALxqdW1iAAAARGp1bWRjYm9yABEAEIAAAKoAOJtxE2MycGEuaW5ncmVkaWVudC52MwAAAAAYYzJzaGzjjxBmXZeoOfbFLHsew1sAAABwY2JvcqNpZGM6Zm9ybWF0bWltYWdlL3N2Zyt4bWxqaW5zdGFuY2VJRHgseG1wOmlpZDpiM2M3NTlhNy1hNDlhLTQ4M2EtYTE0OC01ZmQzN2U5MGIxMmVscmVsYXRpb25zaGlwaHBhcmVudE9mAAAB4mp1bWIAAABBanVtZGNib3IAEQAQgAAAqgA4m3ETYzJwYS5hY3Rpb25zLnYyAAAAABhjMnNoOpJVEyJ7vRYUxmscerAUtwAAAZljYm9yomdhY3Rpb25zgqJmYWN0aW9ua2MycGEub3BlbmVkanBhcmFtZXRlcnOha2luZ3JlZGllbnRzgaJjdXJseC1zZWxmI2p1bWJmPWMycGEuYXNzZXJ0aW9ucy9jMnBhLmluZ3JlZGllbnQudjNkaGFzaFggoXRP/Q4zzEwmfHg9ob6d82Es3PU4NX8EDwYlr391O22kZmFjdGlvbngdY29tLmFudGhyb3BpYy5jbGF1ZGUucHJvdmlkZWRqcGFyYW1ldGVyc6F4H2NvbS5hbnRocm9waWMub3JpZ2luLWNvbmZpZGVuY2VndW5rbm93bmtkZXNjcmlwdGlvbnhmQ2xhdWRlIHByb3ZpZGVkIHRoaXMgZmlsZSBhdCB0aGUgcmVxdWVzdCBvZiBhIHVzZXIgYW5kIG1heSBoYXZlIGNyZWF0ZWQgb3IgbW9kaWZpZWQgdGhlIGZpbGUgY29udGVudHMubXNvZnR3YXJlQWdlbnShZG5hbWVmQ2xhdWRlcmFsbEFjdGlvbnNJbmNsdWRlZPUAAADIanVtYgAAAEBqdW1kY2JvcgARABCAAACqADibcRNjMnBhLmhhc2guZGF0YQAAAAAYYzJzaNLoxm/BmSFvTjOt8VrCbMwAAACAY2JvcqVjYWxnZnNoYTI1NmNwYWRNAAAAAAAAAAAAAAAAAGRoYXNoWCCeBu630Y8909E7kilkRdbStSFwpXq0jbvyCsCXUDpzz2RuYW1lbmp1bWJmIG1hbmlmZXN0amV4Y2x1c2lvbnOBomVzdGFydBiyZmxlbmd0aBkeBAAAAj5qdW1iAAAAJ2p1bWRjMmNsABEAEIAAAKoAOJtxA2MycGEuY2xhaW0udjIAAAACD2Nib3KlY2FsZ2ZzaGEyNTZpc2lnbmF0dXJleE1zZWxmI2p1bWJmPS9jMnBhL3VybjpjMnBhOjc3M2Q5NzA5LTRkMTAtNDM4NS1iNzY3LTVkNTAxMWRkMzg5ZC9jMnBhLnNpZ25hdHVyZWppbnN0YW5jZUlEeCx4bXA6aWlkOmJhNDZlNzAyLTA0ZWUtNGI4NS05NTZhLTJiMDI4OTcxZjgxNnJjcmVhdGVkX2Fzc2VydGlvbnODomN1cmx4LXNlbGYjanVtYmY9YzJwYS5hc3NlcnRpb25zL2MycGEuaW5ncmVkaWVudC52M2RoYXNoWCChdE/9DjPMTCZ8eD2hvp3zYSzc9Tg1fwQPBiWvf3U7baJjdXJseCpzZWxmI2p1bWJmPWMycGEuYXNzZXJ0aW9ucy9jMnBhLmFjdGlvbnMudjJkaGFzaFggWrLHco9ZBW40R9XgjCB2K/Zp4oy/ljS1CGArCQ0lXT2iY3VybHgpc2VsZiNqdW1iZj1jMnBhLmFzc2VydGlvbnMvYzJwYS5oYXNoLmRhdGFkaGFzaFgg0V2UF2/Is9i/3gd+50galChbgUz9M23c6aIczYJaCgx0Y2xhaW1fZ2VuZXJhdG9yX2luZm+jZG5hbWVvQW50aHJvcGljIEZpbGVzZ3ZlcnNpb25lMS4wLjBrc3BlY1ZlcnNpb25lMi40LjAAABA4anVtYgAAAChqdW1kYzJjcwARABCAAACqADibcQNjMnBhLnNpZ25hdHVyZQAAABAIY2JvctKEWQISogEmGCFZAgowggIGMIIBjaADAgECAhRA5aAK7sI50L64g/oGQgU9Z1UTADAKBggqhkjOPQQDAzBJMRcwFQYDVQQKEw5BbnRocm9waWMsIFBCQzEuMCwGA1UEAxMlQW50aHJvcGljIENvbnRlbnQgQ3JlZGVudGlhbHMgUm9vdCBDQTAeFw0yNjA4MDcxODQzNTZaFw0yODA4MDYxOTQzNTZaMEQxFzAVBgNVBAoTDkFudGhyb3BpYywgUEJDMSkwJwYDVQQDEyBBbnRocm9waWMgQ2xhdWRlIENvbnRlbnQgU2lnbmluZzBZMBMGByqGSM49AgEGCCqGSM49AwEHA0IABJh6CmvLUBgFFNU0vUKlOVtE6djd17L5SuwX0LemFisBM3dkd/3cyjxFA3Qo5S46fX0/ihY0VZ7mfb9KF703t5OjWDBWMA4GA1UdDwEB/wQEAwIHgDAVBgNVHSUEDjAMBgorBgEEAYPoXgIBMAwGA1UdEwEB/wQCMAAwHwYDVR0jBBgwFoAUzlHiBIFOZFsj+OPEz5o+nMHXXMIwCgYIKoZIzj0EAwMDZwAwZAIwMXMdFJ4BetLLVY7ORuE9noqbbAZOZn/aArXyTwFAZfKrPzxF2vPoJNf1+UCdg1XGAjBwX1zd9WGqYkqmL5SFqw1QySjr1zJfpJM9+1rdDwSPLMOPOjKuiXjoU/pUUeG9RwmhY3BhZFkNngAAAAAAAAAAAAAAAAAAAAAAAAAAAAAAAAAAAAAAAAAAAAAAAAAAAAAAAAAAAAAAAAAAAAAAAAAAAAAAAAAAAAAAAAAAAAAAAAAAAAAAAAAAAAAAAAAAAAAAAAAAAAAAAAAAAAAAAAAAAAAAAAAAAAAAAAAAAAAAAAAAAAAAAAAAAAAAAAAAAAAAAAAAAAAAAAAAAAAAAAAAAAAAAAAAAAAAAAAAAAAAAAAAAAAAAAAAAAAAAAAAAAAAAAAAAAAAAAAAAAAAAAAAAAAAAAAAAAAAAAAAAAAAAAAAAAAAAAAAAAAAAAAAAAAAAAAAAAAAAAAAAAAAAAAAAAAAAAAAAAAAAAAAAAAAAAAAAAAAAAAAAAAAAAAAAAAAAAAAAAAAAAAAAAAAAAAAAAAAAAAAAAAAAAAAAAAAAAAAAAAAAAAAAAAAAAAAAAAAAAAAAAAAAAAAAAAAAAAAAAAAAAAAAAAAAAAAAAAAAAAAAAAAAAAAAAAAAAAAAAAAAAAAAAAAAAAAAAAAAAAAAAAAAAAAAAAAAAAAAAAAAAAAAAAAAAAAAAAAAAAAAAAAAAAAAAAAAAAAAAAAAAAAAAAAAAAAAAAAAAAAAAAAAAAAAAAAAAAAAAAAAAAAAAAAAAAAAAAAAAAAAAAAAAAAAAAAAAAAAAAAAAAAAAAAAAAAAAAAAAAAAAAAAAAAAAAAAAAAAAAAAAAAAAAAAAAAAAAAAAAAAAAAAAAAAAAAAAAAAAAAAAAAAAAAAAAAAAAAAAAAAAAAAAAAAAAAAAAAAAAAAAAAAAAAAAAAAAAAAAAAAAAAAAAAAAAAAAAAAAAAAAAAAAAAAAAAAAAAAAAAAAAAAAAAAAAAAAAAAAAAAAAAAAAAAAAAAAAAAAAAAAAAAAAAAAAAAAAAAAAAAAAAAAAAAAAAAAAAAAAAAAAAAAAAAAAAAAAAAAAAAAAAAAAAAAAAAAAAAAAAAAAAAAAAAAAAAAAAAAAAAAAAAAAAAAAAAAAAAAAAAAAAAAAAAAAAAAAAAAAAAAAAAAAAAAAAAAAAAAAAAAAAAAAAAAAAAAAAAAAAAAAAAAAAAAAAAAAAAAAAAAAAAAAAAAAAAAAAAAAAAAAAAAAAAAAAAAAAAAAAAAAAAAAAAAAAAAAAAAAAAAAAAAAAAAAAAAAAAAAAAAAAAAAAAAAAAAAAAAAAAAAAAAAAAAAAAAAAAAAAAAAAAAAAAAAAAAAAAAAAAAAAAAAAAAAAAAAAAAAAAAAAAAAAAAAAAAAAAAAAAAAAAAAAAAAAAAAAAAAAAAAAAAAAAAAAAAAAAAAAAAAAAAAAAAAAAAAAAAAAAAAAAAAAAAAAAAAAAAAAAAAAAAAAAAAAAAAAAAAAAAAAAAAAAAAAAAAAAAAAAAAAAAAAAAAAAAAAAAAAAAAAAAAAAAAAAAAAAAAAAAAAAAAAAAAAAAAAAAAAAAAAAAAAAAAAAAAAAAAAAAAAAAAAAAAAAAAAAAAAAAAAAAAAAAAAAAAAAAAAAAAAAAAAAAAAAAAAAAAAAAAAAAAAAAAAAAAAAAAAAAAAAAAAAAAAAAAAAAAAAAAAAAAAAAAAAAAAAAAAAAAAAAAAAAAAAAAAAAAAAAAAAAAAAAAAAAAAAAAAAAAAAAAAAAAAAAAAAAAAAAAAAAAAAAAAAAAAAAAAAAAAAAAAAAAAAAAAAAAAAAAAAAAAAAAAAAAAAAAAAAAAAAAAAAAAAAAAAAAAAAAAAAAAAAAAAAAAAAAAAAAAAAAAAAAAAAAAAAAAAAAAAAAAAAAAAAAAAAAAAAAAAAAAAAAAAAAAAAAAAAAAAAAAAAAAAAAAAAAAAAAAAAAAAAAAAAAAAAAAAAAAAAAAAAAAAAAAAAAAAAAAAAAAAAAAAAAAAAAAAAAAAAAAAAAAAAAAAAAAAAAAAAAAAAAAAAAAAAAAAAAAAAAAAAAAAAAAAAAAAAAAAAAAAAAAAAAAAAAAAAAAAAAAAAAAAAAAAAAAAAAAAAAAAAAAAAAAAAAAAAAAAAAAAAAAAAAAAAAAAAAAAAAAAAAAAAAAAAAAAAAAAAAAAAAAAAAAAAAAAAAAAAAAAAAAAAAAAAAAAAAAAAAAAAAAAAAAAAAAAAAAAAAAAAAAAAAAAAAAAAAAAAAAAAAAAAAAAAAAAAAAAAAAAAAAAAAAAAAAAAAAAAAAAAAAAAAAAAAAAAAAAAAAAAAAAAAAAAAAAAAAAAAAAAAAAAAAAAAAAAAAAAAAAAAAAAAAAAAAAAAAAAAAAAAAAAAAAAAAAAAAAAAAAAAAAAAAAAAAAAAAAAAAAAAAAAAAAAAAAAAAAAAAAAAAAAAAAAAAAAAAAAAAAAAAAAAAAAAAAAAAAAAAAAAAAAAAAAAAAAAAAAAAAAAAAAAAAAAAAAAAAAAAAAAAAAAAAAAAAAAAAAAAAAAAAAAAAAAAAAAAAAAAAAAAAAAAAAAAAAAAAAAAAAAAAAAAAAAAAAAAAAAAAAAAAAAAAAAAAAAAAAAAAAAAAAAAAAAAAAAAAAAAAAAAAAAAAAAAAAAAAAAAAAAAAAAAAAAAAAAAAAAAAAAAAAAAAAAAAAAAAAAAAAAAAAAAAAAAAAAAAAAAAAAAAAAAAAAAAAAAAAAAAAAAAAAAAAAAAAAAAAAAAAAAAAAAAAAAAAAAAAAAAAAAAAAAAAAAAAAAAAAAAAAAAAAAAAAAAAAAAAAAAAAAAAAAAAAAAAAAAAAAAAAAAAAAAAAAAAAAAAAAAAAAAAAAAAAAAAAAAAAAAAAAAAAAAAAAAAAAAAAAAAAAAAAAAAAAAAAAAAAAAAAAAAAAAAAAAAAAAAAAAAAAAAAAAAAAAAAAAAAAAAAAAAAAAAAAAAAAAAAAAAAAAAAAAAAAAAAAAAAAAAAAAAAAAAAAAAAAAAAAAAAAAAAAAAAAAAAAAAAAAAAAAAAAAAAAAAAAAAAAAAAAAAAAAAAAAAAAAAAAAAAAAAAAAAAAAAAAAAAAAAAAAAAAAAAAAAAAAAAAAAAAAAAAAAAAAAAAAAAAAAAAAAAAAAAAAAAAAAAAAAAAAAAAAAAAAAAAAAAAAAAAAAAAAAAAAAAAAAAAAAAAAAAAAAAAAAAAAAAAAAAAAAAAAAAAAAAAAAAAAAAAAAAAAAAAAAAAAAAAAAAAAAAAAAAAAAAAAAAAAAAAAAAAAAAAAAAAAAAAAAAAAAAAAAAAAAAAAAAAAAAAAAAAAAAAAAAAAAAAAAAAAAAAAAAAAAAAAAAAAAAAAAAAAAAAAAAAAAAAAAAAAAAAAAAAAAAAAAAAAAAAAAAAAAAAAAAAAAAAAAAAAAAAAAAAAAAAAAAAAAAAAAAAAAAAAAAAAAAAAAAAAAAAAAAAAAAAAAAAAAAAAAAAAAAAAAAAAAAAAAAAAAAAAAAAAAAAAAAAAAAAAAAAAAAAAAAAAAAAAAAAAAAAAAAAAAAAAAAAAAAAAAAAAAAAAAAAAAAAAAAAAAAAAAAAAAAAAAAAAAAAAAAAAAAAAAAAAAAAAAAAAAAAAAAAAAAAAAAAAAAAAAAAAAAAAAAAAAAAAAAAAAAAAAAAAAAAAAAAAAAAAAAAAAAAAAAAAAAAAAAAAAAAAAAAAAAAAAAAAAAAAAAAAAAAAAAAAAAAAAAAAAAAAAAAAAAAAAAAAAAAAAAAAAAAAAAAAAAAAAAAAAAAAAAAAAAAAAAAAAAAAAAAAAAAAAAAAAAAAAAAAAAAAAAAAAAAAAAAAAAAAAAAAAAAAAAAAAAAAAAAAAAAAAAAAAAAAAAAAAAAAAAAAAAAAAAAAAAAAAAAAAAAAAAAAAAAAAAAAAAAAAAAAAAAAAAAAAAAAAAAAAAAAAAAAAAAAAAAAAAAAAAAAAAAAAAAAAAAAAAAAAAAAAAAAAAAAAAAAAAAAAAAAAAAAAAAAAAAAAAAAAAAAAAAAAAAAAAAAAAAAAAAAAAAAAAAAAAAAAAAAAAAAAAAAAAAAAAAAAAAAAAAAAAAAAAAAAAAAAAAAAAAAAAAAAAAAAAAAAAAAAAAAAAAAAAAAAAAAAAAAAAAAAAAAAAAAAAAAAAAAAAAAAAAAAAAAAAAAAAAAAAAAAAAAAAAAAAAAAAAAAAAAAAAAAAAAAAAAAAAAAAAAAAAAAAAAAAAAAAAAAAAAAAAAAAAAAAAAAAAAAAAAAAAAAAAAAAAAAAAAAAAAAAAAAAAAAAAAAAAAAAAAAAAAAAAAAAAAAAAAAAAAAAAAAAAAAAAAAAAAAAAAAAAAAAAAAAAAAAAAAAAAAAAAAAAAAAAAAAAAAAAAAAAAAAAAAAAAAAAAAAAAAAAAAAAAAAAAAAAAAAAAAAAAAAAAAAAAAAAAAAAAAAAAAAAAAAAAAAAAAAAAAAAAAAAAAAAAAAAAAAAAAAAAAAAAAAAAAAAAAAAAAAAAAAAAAAAAAAAAAAAAAAAAAAAAAAAAAAAAAAAAAAAAAAAAAAAAAAAAAAAAAAAAAAAAAAAAAAAAAAAAAAAAAAAAAAAAAAAAAAAAAAAAAAAAAAAAAAAAAAAAAAAAAAAAAAAAAAAAAAAAAAAAAAAAAAAAAAAAAAAAAAAAAAAAAAAAAAAAAAAAAAAAAAAAAAAAAAAAAAAAAAAAAAAAAAAAAAAAAAAAAAAAAAAAAAAAAAAAAAAAAAAAAAAAAAAAAAAAAAAAAAAAAAAAPZYQN53IzZUbkbxOIswdz8EWXG4B8QxcVoKXI+aR0PmPLZCCXy+Dg8feqvAAs2FyYckgwS7Ceyfpny5VxJEHA2CcbQ=</c2pa:manifest></metadata>
<path d="M-9.53 -14.52L8.06 -19.6L42.7 0.4L27.11 9.4L9.53 14.48L-25.11 -5.52Z" fill="#6f604c" fill-opacity="0.18"></path>
<path d="M-9.53 -20L25.11 0L9.53 9L-25.11 -11Z" fill="#f4f0e8" stroke="#5E5242" stroke-opacity="0.42" stroke-width="0.37"></path>
<path d="M25.11 5.5L9.53 14.5L9.53 9L25.11 0Z" fill="#cfc8bc" stroke="#5E5242" stroke-opacity="0.42" stroke-width="0.37"></path>
<path d="M9.53 14.5L-25.11 -5.5L-25.11 -11L9.53 9Z" fill="#e4dfd6" stroke="#5E5242" stroke-opacity="0.42" stroke-width="0.37"></path>
<path d="M-24.77 -9.4L9.18 10.2L8.83 10.4L-25.11 -9.2Z" fill="#bcd2d4" stroke="#5E5242" stroke-opacity="0.42" stroke-width="0.37"></path>
<path d="M9.18 13.8L8.83 14L8.83 10.4L9.18 10.2Z" fill="#a6b2ae" stroke="#5E5242" stroke-opacity="0.42" stroke-width="0.37"></path>
<path d="M8.83 14L-25.11 -5.6L-25.11 -9.2L8.83 10.4Z" fill="#b3c4c4" stroke="#5E5242" stroke-opacity="0.42" stroke-width="0.37"></path>
<path d="M-21.13 -3.3L-21.13 -6.9" stroke="#8FA6A9" stroke-width="0.26" fill="none"></path>
<path d="M-16.8 -0.8L-16.8 -4.4" stroke="#8FA6A9" stroke-width="0.26" fill="none"></path>
<path d="M-12.47 1.7L-12.47 -1.9" stroke="#8FA6A9" stroke-width="0.26" fill="none"></path>
<path d="M-8.14 4.2L-8.14 0.6" stroke="#8FA6A9" stroke-width="0.26" fill="none"></path>
<path d="M-3.81 6.7L-3.81 3.1" stroke="#8FA6A9" stroke-width="0.26" fill="none"></path>
<path d="M0.52 9.2L0.52 5.6" stroke="#8FA6A9" stroke-width="0.26" fill="none"></path>
<path d="M4.85 11.7L4.85 8.1" stroke="#8FA6A9" stroke-width="0.26" fill="none"></path>
<path d="M-25.11 -10.15L9.53 9.85L7.97 10.75L-26.67 -9.25Z" fill="#e4572e" stroke="#5E5242" stroke-opacity="0.42" stroke-width="0.37"></path>
<path d="M9.53 10.2L7.97 11.1L7.97 10.75L9.53 9.85Z" fill="#c35a36" stroke="#5E5242" stroke-opacity="0.42" stroke-width="0.37"></path>
<path d="M7.97 11.1L-26.67 -8.9L-26.67 -9.25L7.97 10.75Z" fill="#d65832" stroke="#5E5242" stroke-opacity="0.42" stroke-width="0.37"></path>
<path d="M-11.26 -62L-0.87 -56L-11.26 -50L-21.65 -56Z" fill="#fbf8f2" stroke="#5E5242" stroke-opacity="0.42" stroke-width="0.37"></path>
<path d="M-0.87 -12L-11.26 -6L-11.26 -50L-0.87 -56Z" fill="#d4cdc4" stroke="#5E5242" stroke-opacity="0.42" stroke-width="0.37"></path>
<path d="M-11.26 -6L-21.65 -12L-21.65 -56L-11.26 -50Z" fill="#eae6de" stroke="#5E5242" stroke-opacity="0.42" stroke-width="0.37"></path>
<path d="M-21.65 -14.6L-11.26 -8.6" stroke="#e5e0d7" stroke-width="0.22" fill="none"></path>
<path d="M-0.87 -14.6L-11.26 -8.6" stroke="#e5e0d7" stroke-width="0.22" fill="none"></path>
<path d="M-21.65 -17.2L-11.26 -11.2" stroke="#e5e0d7" stroke-width="0.22" fill="none"></path>
<path d="M-0.87 -17.2L-11.26 -11.2" stroke="#e5e0d7" stroke-width="0.22" fill="none"></path>
<path d="M-21.65 -19.8L-11.26 -13.8" stroke="#e5e0d7" stroke-width="0.22" fill="none"></path>
<path d="M-0.87 -19.8L-11.26 -13.8" stroke="#e5e0d7" stroke-width="0.22" fill="none"></path>
<path d="M-21.65 -22.4L-11.26 -16.4" stroke="#e5e0d7" stroke-width="0.22" fill="none"></path>
<path d="M-0.87 -22.4L-11.26 -16.4" stroke="#e5e0d7" stroke-width="0.22" fill="none"></path>
<path d="M-21.65 -25L-11.26 -19" stroke="#e5e0d7" stroke-width="0.22" fill="none"></path>
<path d="M-0.87 -25L-11.26 -19" stroke="#e5e0d7" stroke-width="0.22" fill="none"></path>
<path d="M-21.65 -27.6L-11.26 -21.6" stroke="#e5e0d7" stroke-width="0.22" fill="none"></path>
<path d="M-0.87 -27.6L-11.26 -21.6" stroke="#e5e0d7" stroke-width="0.22" fill="none"></path>
<path d="M-21.65 -30.2L-11.26 -24.2" stroke="#e5e0d7" stroke-width="0.22" fill="none"></path>
<path d="M-0.87 -30.2L-11.26 -24.2" stroke="#e5e0d7" stroke-width="0.22" fill="none"></path>
<path d="M-21.65 -32.8L-11.26 -26.8" stroke="#e5e0d7" stroke-width="0.22" fill="none"></path>
<path d="M-0.87 -32.8L-11.26 -26.8" stroke="#e5e0d7" stroke-width="0.22" fill="none"></path>
<path d="M-21.65 -35.4L-11.26 -29.4" stroke="#e5e0d7" stroke-width="0.22" fill="none"></path>
<path d="M-0.87 -35.4L-11.26 -29.4" stroke="#e5e0d7" stroke-width="0.22" fill="none"></path>
<path d="M-21.65 -38L-11.26 -32" stroke="#e5e0d7" stroke-width="0.22" fill="none"></path>
<path d="M-0.87 -38L-11.26 -32" stroke="#e5e0d7" stroke-width="0.22" fill="none"></path>
<path d="M-21.65 -40.6L-11.26 -34.6" stroke="#e5e0d7" stroke-width="0.22" fill="none"></path>
<path d="M-0.87 -40.6L-11.26 -34.6" stroke="#e5e0d7" stroke-width="0.22" fill="none"></path>
<path d="M-21.65 -43.2L-11.26 -37.2" stroke="#e5e0d7" stroke-width="0.22" fill="none"></path>
<path d="M-0.87 -43.2L-11.26 -37.2" stroke="#e5e0d7" stroke-width="0.22" fill="none"></path>
<path d="M-21.65 -45.8L-11.26 -39.8" stroke="#e5e0d7" stroke-width="0.22" fill="none"></path>
<path d="M-0.87 -45.8L-11.26 -39.8" stroke="#e5e0d7" stroke-width="0.22" fill="none"></path>
<path d="M-21.65 -48.4L-11.26 -42.4" stroke="#e5e0d7" stroke-width="0.22" fill="none"></path>
<path d="M-0.87 -48.4L-11.26 -42.4" stroke="#e5e0d7" stroke-width="0.22" fill="none"></path>
<path d="M-21.65 -51L-11.26 -45" stroke="#e5e0d7" stroke-width="0.22" fill="none"></path>
<path d="M-0.87 -51L-11.26 -45" stroke="#e5e0d7" stroke-width="0.22" fill="none"></path>
<path d="M-21.65 -53.6L-11.26 -47.6" stroke="#e5e0d7" stroke-width="0.22" fill="none"></path>
<path d="M-0.87 -53.6L-11.26 -47.6" stroke="#e5e0d7" stroke-width="0.22" fill="none"></path>
<path d="M-18.22 -10.02L-18.22 -54.02" stroke="#dfdad1" stroke-width="0.22" fill="none"></path>
<path d="M-14.79 -8.04L-14.79 -52.04" stroke="#dfdad1" stroke-width="0.22" fill="none"></path>
<path d="M-11.26 -60.9L-6.93 -58.4L-11.26 -55.9L-15.59 -58.4Z" fill="#f4f0e8" stroke="#5E5242" stroke-opacity="0.42" stroke-width="0.37"></path>
<path d="M-6.93 -56L-11.26 -53.5L-11.26 -55.9L-6.93 -58.4Z" fill="#cfc8bc" stroke="#5E5242" stroke-opacity="0.42" stroke-width="0.37"></path>
<path d="M-11.26 -53.5L-15.59 -56L-15.59 -58.4L-11.26 -55.9Z" fill="#e4dfd6" stroke="#5E5242" stroke-opacity="0.42" stroke-width="0.37"></path>
<path d="M11.26 -49L21.65 -43L11.26 -37L0.87 -43Z" fill="#fbf8f2" stroke="#5E5242" stroke-opacity="0.42" stroke-width="0.37"></path>
<path d="M21.65 1L11.26 7L11.26 -37L21.65 -43Z" fill="#d4cdc4" stroke="#5E5242" stroke-opacity="0.42" stroke-width="0.37"></path>
<path d="M11.26 7L0.87 1L0.87 -43L11.26 -37Z" fill="#eae6de" stroke="#5E5242" stroke-opacity="0.42" stroke-width="0.37"></path>
<path d="M0.87 -1.6L11.26 4.4" stroke="#e5e0d7" stroke-width="0.22" fill="none"></path>
<path d="M21.65 -1.6L11.26 4.4" stroke="#e5e0d7" stroke-width="0.22" fill="none"></path>
<path d="M0.87 -4.2L11.26 1.8" stroke="#e5e0d7" stroke-width="0.22" fill="none"></path>
<path d="M21.65 -4.2L11.26 1.8" stroke="#e5e0d7" stroke-width="0.22" fill="none"></path>
<path d="M0.87 -6.8L11.26 -0.8" stroke="#e5e0d7" stroke-width="0.22" fill="none"></path>
<path d="M21.65 -6.8L11.26 -0.8" stroke="#e5e0d7" stroke-width="0.22" fill="none"></path>
<path d="M0.87 -9.4L11.26 -3.4" stroke="#e5e0d7" stroke-width="0.22" fill="none"></path>
<path d="M21.65 -9.4L11.26 -3.4" stroke="#e5e0d7" stroke-width="0.22" fill="none"></path>
<path d="M0.87 -12L11.26 -6" stroke="#e5e0d7" stroke-width="0.22" fill="none"></path>
<path d="M21.65 -12L11.26 -6" stroke="#e5e0d7" stroke-width="0.22" fill="none"></path>
<path d="M0.87 -14.6L11.26 -8.6" stroke="#e5e0d7" stroke-width="0.22" fill="none"></path>
<path d="M21.65 -14.6L11.26 -8.6" stroke="#e5e0d7" stroke-width="0.22" fill="none"></path>
<path d="M0.87 -17.2L11.26 -11.2" stroke="#e5e0d7" stroke-width="0.22" fill="none"></path>
<path d="M21.65 -17.2L11.26 -11.2" stroke="#e5e0d7" stroke-width="0.22" fill="none"></path>
<path d="M0.87 -19.8L11.26 -13.8" stroke="#e5e0d7" stroke-width="0.22" fill="none"></path>
<path d="M21.65 -19.8L11.26 -13.8" stroke="#e5e0d7" stroke-width="0.22" fill="none"></path>
<path d="M0.87 -22.4L11.26 -16.4" stroke="#e5e0d7" stroke-width="0.22" fill="none"></path>
<path d="M21.65 -22.4L11.26 -16.4" stroke="#e5e0d7" stroke-width="0.22" fill="none"></path>
<path d="M0.87 -25L11.26 -19" stroke="#e5e0d7" stroke-width="0.22" fill="none"></path>
<path d="M21.65 -25L11.26 -19" stroke="#e5e0d7" stroke-width="0.22" fill="none"></path>
<path d="M0.87 -27.6L11.26 -21.6" stroke="#e5e0d7" stroke-width="0.22" fill="none"></path>
<path d="M21.65 -27.6L11.26 -21.6" stroke="#e5e0d7" stroke-width="0.22" fill="none"></path>
<path d="M0.87 -30.2L11.26 -24.2" stroke="#e5e0d7" stroke-width="0.22" fill="none"></path>
<path d="M21.65 -30.2L11.26 -24.2" stroke="#e5e0d7" stroke-width="0.22" fill="none"></path>
<path d="M0.87 -32.8L11.26 -26.8" stroke="#e5e0d7" stroke-width="0.22" fill="none"></path>
<path d="M21.65 -32.8L11.26 -26.8" stroke="#e5e0d7" stroke-width="0.22" fill="none"></path>
<path d="M0.87 -35.4L11.26 -29.4" stroke="#e5e0d7" stroke-width="0.22" fill="none"></path>
<path d="M21.65 -35.4L11.26 -29.4" stroke="#e5e0d7" stroke-width="0.22" fill="none"></path>
<path d="M0.87 -38L11.26 -32" stroke="#e5e0d7" stroke-width="0.22" fill="none"></path>
<path d="M21.65 -38L11.26 -32" stroke="#e5e0d7" stroke-width="0.22" fill="none"></path>
<path d="M0.87 -40.6L11.26 -34.6" stroke="#e5e0d7" stroke-width="0.22" fill="none"></path>
<path d="M21.65 -40.6L11.26 -34.6" stroke="#e5e0d7" stroke-width="0.22" fill="none"></path>
<path d="M4.3 2.98L4.3 -41.02" stroke="#dfdad1" stroke-width="0.22" fill="none"></path>
<path d="M7.72 4.96L7.72 -39.04" stroke="#dfdad1" stroke-width="0.22" fill="none"></path>
<path d="M11.26 -47.9L15.59 -45.4L11.26 -42.9L6.93 -45.4Z" fill="#f4f0e8" stroke="#5E5242" stroke-opacity="0.42" stroke-width="0.37"></path>
<path d="M15.59 -43L11.26 -40.5L11.26 -42.9L15.59 -45.4Z" fill="#cfc8bc" stroke="#5E5242" stroke-opacity="0.42" stroke-width="0.37"></path>
<path d="M11.26 -40.5L6.93 -43L6.93 -45.4L11.26 -42.9Z" fill="#e4dfd6" stroke="#5E5242" stroke-opacity="0.42" stroke-width="0.37"></path>
</svg>