<svg xmlns="http://www.w3.org/2000/svg" viewBox="-93.62 -10.61 230.54 145.01" width="640" height="403" stroke-linejoin="round" xmlns:c2pa="http://c2pa.org/manifest"><metadata><c2pa:manifest>AAAWgmp1bWIAAAAeanVtZGMycGEAEQAQgAAAqgA4m3EDYzJwYQAAABZcanVtYgAAAEdqdW1kYzJtYQARABCAAACqADibcQN1cm46YzJwYTpkYmMwOWFiNi05M2RhLTQxYmItYjg2My0yMGU3ZTdjYjE5ZGQAAAADl2p1bWIAAAApanVtZGMyYXMAEQAQgAAAqgA4m3EDYzJwYS5hc3NlcnRpb25zAAAAALxqdW1iAAAARGp1bWRjYm9yABEAEIAAAKoAOJtxE2MycGEuaW5ncmVkaWVudC52MwAAAAAYYzJzaKeamSCOTmg+bfcuIOLvQQMAAABwY2JvcqNpZGM6Zm9ybWF0bWltYWdlL3N2Zyt4bWxqaW5zdGFuY2VJRHgseG1wOmlpZDo1ZGM1OTA4NS1mMDE3LTQ5ZDMtYjJlOC1lMzU1ZmI1YTk1NzRscmVsYXRpb25zaGlwaHBhcmVudE9mAAAB4mp1bWIAAABBanVtZGNib3IAEQAQgAAAqgA4m3ETYzJwYS5hY3Rpb25zLnYyAAAAABhjMnNoPj0LeIDDjwbnCnqcuyDdpwAAAZljYm9yomdhY3Rpb25zgqJmYWN0aW9ua2MycGEub3BlbmVkanBhcmFtZXRlcnOha2luZ3JlZGllbnRzgaJjdXJseC1zZWxmI2p1bWJmPWMycGEuYXNzZXJ0aW9ucy9jMnBhLmluZ3JlZGllbnQudjNkaGFzaFggk+wwc84WOI0GvMHxzRyeddt8kDGR6jcnfkvT+m8FkRekZmFjdGlvbngdY29tLmFudGhyb3BpYy5jbGF1ZGUucHJvdmlkZWRqcGFyYW1ldGVyc6F4H2NvbS5hbnRocm9waWMub3JpZ2luLWNvbmZpZGVuY2VndW5rbm93bmtkZXNjcmlwdGlvbnhmQ2xhdWRlIHByb3ZpZGVkIHRoaXMgZmlsZSBhdCB0aGUgcmVxdWVzdCBvZiBhIHVzZXIgYW5kIG1heSBoYXZlIGNyZWF0ZWQgb3IgbW9kaWZpZWQgdGhlIGZpbGUgY29udGVudHMubXNvZnR3YXJlQWdlbnShZG5hbWVmQ2xhdWRlcmFsbEFjdGlvbnNJbmNsdWRlZPUAAADIanVtYgAAAEBqdW1kY2JvcgARABCAAACqADibcRNjMnBhLmhhc2guZGF0YQAAAAAYYzJzaIRBy9+1NbQjLbT4HXGCpC8AAACAY2JvcqVjYWxnZnNoYTI1NmNwYWRNAAAAAAAAAAAAAAAAAGRoYXNoWCDiA7nH4ALOYNBOP/7VkcmXuzI9IfY1jhP7q2DwmxuPs2RuYW1lbmp1bWJmIG1hbmlmZXN0amV4Y2x1c2lvbnOBomVzdGFydBi+Zmxlbmd0aBkeBAAAAj5qdW1iAAAAJ2p1bWRjMmNsABEAEIAAAKoAOJtxA2MycGEuY2xhaW0udjIAAAACD2Nib3KlY2FsZ2ZzaGEyNTZpc2lnbmF0dXJleE1zZWxmI2p1bWJmPS9jMnBhL3VybjpjMnBhOmRiYzA5YWI2LTkzZGEtNDFiYi1iODYzLTIwZTdlN2NiMTlkZC9jMnBhLnNpZ25hdHVyZWppbnN0YW5jZUlEeCx4bXA6aWlkOjQyM2VjMGY4LTM0ZGQtNDU0Ni1hZDZjLTdjMThiZjY4ODlkOXJjcmVhdGVkX2Fzc2VydGlvbnODomN1cmx4LXNlbGYjanVtYmY9YzJwYS5hc3NlcnRpb25zL2MycGEuaW5ncmVkaWVudC52M2RoYXNoWCCT7DBzzhY4jQa8wfHNHJ5123yQMZHqNyd+S9P6bwWRF6JjdXJseCpzZWxmI2p1bWJmPWMycGEuYXNzZXJ0aW9ucy9jMnBhLmFjdGlvbnMudjJkaGFzaFggw9ImE/v56F9rAJZ2M7zqUV0wtKYcuJlRCs5CSbnx93SiY3VybHgpc2VsZiNqdW1iZj1jMnBhLmFzc2VydGlvbnMvYzJwYS5oYXNoLmRhdGFkaGFzaFggOrv+yeON1Y3z2sZcWAF7GGbUomTLuIk1fJWiKxKdITR0Y2xhaW1fZ2VuZXJhdG9yX2luZm+jZG5hbWVvQW50aHJvcGljIEZpbGVzZ3ZlcnNpb25lMS4wLjBrc3BlY1ZlcnNpb25lMi40LjAAABA4anVtYgAAAChqdW1kYzJjcwARABCAAACqADibcQNjMnBhLnNpZ25hdHVyZQAAABAIY2JvctKEWQISogEmGCFZAgowggIGMIIBjaADAgECAhRA5aAK7sI50L64g/oGQgU9Z1UTADAKBggqhkjOPQQDAzBJMRcwFQYDVQQKEw5BbnRocm9waWMsIFBCQzEuMCwGA1UEAxMlQW50aHJvcGljIENvbnRlbnQgQ3JlZGVudGlhbHMgUm9vdCBDQTAeFw0yNjA4MDcxODQzNTZaFw0yODA4MDYxOTQzNTZaMEQxFzAVBgNVBAoTDkFudGhyb3BpYywgUEJDMSkwJwYDVQQDEyBBbnRocm9waWMgQ2xhdWRlIENvbnRlbnQgU2lnbmluZzBZMBMGByqGSM49AgEGCCqGSM49AwEHA0IABJh6CmvLUBgFFNU0vUKlOVtE6djd17L5SuwX0LemFisBM3dkd/3cyjxFA3Qo5S46fX0/ihY0VZ7mfb9KF703t5OjWDBWMA4GA1UdDwEB/wQEAwIHgDAVBgNVHSUEDjAMBgorBgEEAYPoXgIBMAwGA1UdEwEB/wQCMAAwHwYDVR0jBBgwFoAUzlHiBIFOZFsj+OPEz5o+nMHXXMIwCgYIKoZIzj0EAwMDZwAwZAIwMXMdFJ4BetLLVY7ORuE9noqbbAZOZn/aArXyTwFAZfKrPzxF2vPoJNf1+UCdg1XGAjBwX1zd9WGqYkqmL5SFqw1QySjr1zJfpJM9+1rdDwSPLMOPOjKuiXjoU/pUUeG9RwmhY3BhZFkNngAAAAAAAAAAAAAAAAAAAAAAAAAAAAAAAAAAAAAAAAAAAAAAAAAAAAAAAAAAAAAAAAAAAAAAAAAAAAAAAAAAAAAAAAAAAAAAAAAAAAAAAAAAAAAAAAAAAAAAAAAAAAAAAAAAAAAAAAAAAAAAAAAAAAAAAAAAAAAAAAAAAAAAAAAAAAAAAAAAAAAAAAAAAAAAAAAAAAAAAAAAAAAAAAAAAAAAAAAAAAAAAAAAAAAAAAAAAAAAAAAAAAAAAAAAAAAAAAAAAAAAAAAAAAAAAAAAAAAAAAAAAAAAAAAAAAAAAAAAAAAAAAAAAAAAAAAAAAAAAAAAAAAAAAAAAAAAAAAAAAAAAAAAAAAAAAAAAAAAAAAAAAAAAAAAAAAAAAAAAAAAAAAAAAAAAAAAAAAAAAAAAAAAAAAAAAAAAAAAAAAAAAAAAAAAAAAAAAAAAAAAAAAAAAAAAAAAAAAAAAAAAAAAAAAAAAAAAAAAAAAAAAAAAAAAAAAAAAAAAAAAAAAAAAAAAAAAAAAAAAAAAAAAAAAAAAAAAAAAAAAAAAAAAAAAAAAAAAAAAAAAAAAAAAAAAAAAAAAAAAAAAAAAAAAAAAAAAAAAAAAAAAAAAAAAAAAAAAAAAAAAAAAAAAAAAAAAAAAAAAAAAAAAAAAAAAAAAAAAAAAAAAAAAAAAAAAAAAAAAAAAAAAAAAAAAAAAAAAAAAAAAAAAAAAAAAAAAAAAAAAAAAAAAAAAAAAAAAAAAAAAAAAAAAAAAAAAAAAAAAAAAAAAAAAAAAAAAAAAAAAAAAAAAAAAAAAAAAAAAAAAAAAAAAAAAAAAAAAAAAAAAAAAAAAAAAAAAAAAAAAAAAAAAAAAAAAAAAAAAAAAAAAAAAAAAAAAAAAAAAAAAAAAAAAAAAAAAAAAAAAAAAAAAAAAAAAAAAAAAAAAAAAAAAAAAAAAAAAAAAAAAAAAAAAAAAAAAAAAAAAAAAAAAAAAAAAAAAAAAAAAAAAAAAAAAAAAAAAAAAAAAAAAAAAAAAAAAAAAAAAAAAAAAAAAAAAAAAAAAAAAAAAAAAAAAAAAAAAAAAAAAAAAAAAAAAAAAAAAAAAAAAAAAAAAAAAAAAAAAAAAAAAAAAAAAAAAAAAAAAAAAAAAAAAAAAAAAAAAAAAAAAAAAAAAAAAAAAAAAAAAAAAAAAAAAAAAAAAAAAAAAAAAAAAAAAAAAAAAAAAAAAAAAAAAAAAAAAAAAAAAAAAAAAAAAAAAAAAAAAAAAAAAAAAAAAAAAAAAAAAAAAAAAAAAAAAAAAAAAAAAAAAAAAAAAAAAAAAAAAAAAAAAAAAAAAAAAAAAAAAAAAAAAAAAAAAAAAAAAAAAAAAAAAAAAAAAAAAAAAAAAAAAAAAAAAAAAAAAAAAAAAAAAAAAAAAAAAAAAAAAAAAAAAAAAAAAAAAAAAAAAAAAAAAAAAAAAAAAAAAAAAAAAAAAAAAAAAAAAAAAAAAAAAAAAAAAAAAAAAAAAAAAAAAAAAAAAAAAAAAAAAAAAAAAAAAAAAAAAAAAAAAAAAAAAAAAAAAAAAAAAAAAAAAAAAAAAAAAAAAAAAAAAAAAAAAAAAAAAAAAAAAAAAAAAAAAAAAAAAAAAAAAAAAAAAAAAAAAAAAAAAAAAAAAAAAAAAAAAAAAAAAAAAAAAAAAAAAAAAAAAAAAAAAAAAAAAAAAAAAAAAAAAAAAAAAAAAAAAAAAAAAAAAAAAAAAAAAAAAAAAAAAAAAAAAAAAAAAAAAAAAAAAAAAAAAAAAAAAAAAAAAAAAAAAAAAAAAAAAAAAAAAAAAAAAAAAAAAAAAAAAAAAAAAAAAAAAAAAAAAAAAAAAAAAAAAAAAAAAAAAAAAAAAAAAAAAAAAAAAAAAAAAAAAAAAAAAAAAAAAAAAAAAAAAAAAAAAAAAAAAAAAAAAAAAAAAAAAAAAAAAAAAAAAAAAAAAAAAAAAAAAAAAAAAAAAAAAAAAAAAAAAAAAAAAAAAAAAAAAAAAAAAAAAAAAAAAAAAAAAAAAAAAAAAAAAAAAAAAAAAAAAAAAAAAAAAAAAAAAAAAAAAAAAAAAAAAAAAAAAAAAAAAAAAAAAAAAAAAAAAAAAAAAAAAAAAAAAAAAAAAAAAAAAAAAAAAAAAAAAAAAAAAAAAAAAAAAAAAAAAAAAAAAAAAAAAAAAAAAAAAAAAAAAAAAAAAAAAAAAAAAAAAAAAAAAAAAAAAAAAAAAAAAAAAAAAAAAAAAAAAAAAAAAAAAAAAAAAAAAAAAAAAAAAAAAAAAAAAAAAAAAAAAAAAAAAAAAAAAAAAAAAAAAAAAAAAAAAAAAAAAAAAAAAAAAAAAAAAAAAAAAAAAAAAAAAAAAAAAAAAAAAAAAAAAAAAAAAAAAAAAAAAAAAAAAAAAAAAAAAAAAAAAAAAAAAAAAAAAAAAAAAAAAAAAAAAAAAAAAAAAAAAAAAAAAAAAAAAAAAAAAAAAAAAAAAAAAAAAAAAAAAAAAAAAAAAAAAAAAAAAAAAAAAAAAAAAAAAAAAAAAAAAAAAAAAAAAAAAAAAAAAAAAAAAAAAAAAAAAAAAAAAAAAAAAAAAAAAAAAAAAAAAAAAAAAAAAAAAAAAAAAAAAAAAAAAAAAAAAAAAAAAAAAAAAAAAAAAAAAAAAAAAAAAAAAAAAAAAAAAAAAAAAAAAAAAAAAAAAAAAAAAAAAAAAAAAAAAAAAAAAAAAAAAAAAAAAAAAAAAAAAAAAAAAAAAAAAAAAAAAAAAAAAAAAAAAAAAAAAAAAAAAAAAAAAAAAAAAAAAAAAAAAAAAAAAAAAAAAAAAAAAAAAAAAAAAAAAAAAAAAAAAAAAAAAAAAAAAAAAAAAAAAAAAAAAAAAAAAAAAAAAAAAAAAAAAAAAAAAAAAAAAAAAAAAAAAAAAAAAAAAAAAAAAAAAAAAAAAAAAAAAAAAAAAAAAAAAAAAAAAAAAAAAAAAAAAAAAAAAAAAAAAAAAAAAAAAAAAAAAAAAAAAAAAAAAAAAAAAAAAAAAAAAAAAAAAAAAAAAAAAAAAAAAAAAAAAAAAAAAAAAAAAAAAAAAAAAAAAAAAAAAAAAAAAAAAAAAAAAAAAAAAAAAAAAAAAAAAAAAAAAAAAAAAAAAAAAAAAAAAAAAAAAAAAAAAAAAAAAAAAAAAAAAAAAAAAAAAAAAAAAAAAAAAAAAAAAAAAAAAAAAAAAAAAAAAAAAAAAAAAAAAAAAAAAAAAAAAAAAAAAAAAAAAAAAAAAAAAAAAAAAAAAAAAAAAAAAAAAAAAAAAAAAAAAAAAAAAAAAAAAAAAAAAAAAAAAAAAAAAAAAAAAAAAAAAAAAAAAAAAAAAAAAAAAAAAAAAAAAAAAAAAAAAAAAAAAAAAAAAAAAAAAAAAAAAAAAAAAAAAAAAAAAAAAAAAAAAAAAAAAAAAAAAAAAAAAAAAAAAAAAAAAAAAAAAAAAAAAAAAAAAAAAAAAAAAAAAAAAAAAAAAAAAAAAAAAAAAAAAAAAAAAAAAAAAAAAAAAAAAAAAAAAAAAAAAAAAAAAAAAAAAAAAAAAAAAAAAAAAAAAAAAAAAAAAAAAAAAAAAAAAAAAAAAAAAAAAAAAAAAAAAAAAAAAAAAAAAAAAAAAAAAAAAAAAAAAAAAAAAAAAAAAAAAAAAAAAAAAAAAAAAAAAAAAAAAAAAAAAAAAAAAAAAAAAAAAAAAAAAAAAAAAAAAAAAAAAAAAAAAAAAAAAAAAAAAAAAAAAAAAAAAAAAAAAAAAAAAAAAAAAAAAAAAAAAAAAAAAAAAAAAAAAAAAAAAAAAAAAAAAAAAAAAAAAAAAAAAAAAAAAAAAAAAAAAAAAAAAAAAAAAAAAAAAAAAAAAAAAAAAAAAAAAAAAAAAAAAAAAAAAAAAAAAAAAAAAAAAAAAAAAAAAAAAAAAAAAAAAAAAAAAAAAAAAAAAAAAAAAAAAAAAAAAAAAAAAAAAAAAAAAAAAAAAAAAAAAAAAAAAAAAAAAAAAAAAAAAAAAAAAAAAAAAAAAAAAAAAAAAAAAAAAAAAAAAAAAAAAAAAAAAAAAAAAAAAAAAAAAAAAAAAAAAAAAAAAAAAAAAAAAAAAAAAAAAAAAAAAAAAAAAAAAAAAAAAAAAAAAAAAAAAAAAAAAAAAAAAAAAAAAAAAAAAAAAAAAAAAAAAAAAAAAAAAAAAAAAAAAAAAAAAAAAAAAAAAAAAAAAAAAAAAAAAAAAAAAAAAAAAAAAAAAAAAAAAAAAAAAAAAAAAAAAAAAAAAAAAAAAAAAAAAAAAAAAAAAAAAAAAAAAAAAAAAAAAAAAAAAAAAAAAAAAAAAAAAAAAAAAAAAAAAAAAAAAAAAAAAAAAAAAAAAAAAAAAAAAAAAAAAAAAAAAAAAAAAAAAAAAAAAAAAAAAAAAAAAAAAAAAAAAAAAAAAAAAAAAAAAAAAAAAAAAAAAAAAAAAAAAAAAAAAAAAAAAAAAAAAAAAAAAAAAAAAAAAAAAAAAAAAAAAAAAAAAAAAAAAAAAAAAAAAAAAAAAAAAAAAAAAAAAAAAAAAAAAAAAAAAAAAAAAAAAAAAAAAAAAAAAAAAAAAAAAAAAAAAAAAAAAAAAAAAAAAAAAAAAAAAAAAAAAAAAAAAAAAAAAAAAAAAAAAAAAAAAAAAAAAAAAAAAAAAAAAAAAAAAAAAAAAAAAAAAAAAAAAAAAAAPZYQLIe99SZFNSsAIfjwAqR/RuC2PuhWemWMMpHjezH0fosUuYKfTWyPHE5Kwx59WrBCOSuFZw+Opipm/7jXjz38+8=</c2pa:manifest></metadata>
<path d="M0 0L126.44 73L43.3 121L-83.14 48Z" fill="#e6dfd0" stroke="#5E5242" stroke-opacity="0.42" stroke-width="0.32"></path>
<path d="M126.44 76L43.3 124L43.3 121L126.44 73Z" fill="#c5bbab" stroke="#5E5242" stroke-opacity="0.42" stroke-width="0.32"></path>
<path d="M43.3 124L-83.14 51L-83.14 48L43.3 121Z" fill="#d8d0c0" stroke="#5E5242" stroke-opacity="0.42" stroke-width="0.32"></path>
<path d="M-83.14 49.5L43.3 122.5" stroke="#d4ccbc" stroke-width="0.16" fill="none"></path>
<path d="M126.44 74.5L43.3 122.5" stroke="#d4ccbc" stroke-width="0.16" fill="none"></path>
<path d="M-10.39 15.98L-7.46 15.13L18.52 30.13L-7.46 45.13L-10.39 45.98L-36.37 30.98Z" fill="#6f604c" fill-opacity="0.18"></path>
<path d="M27.71 23.98L33.21 22.39L55.73 35.39L38.4 45.39L32.91 46.98L10.39 33.98Z" fill="#6f604c" fill-opacity="0.18"></path>
<path d="M19.05 44.98L21.62 44.24L77.04 76.24L52.79 90.24L50.23 90.98L-5.2 58.98Z" fill="#6f604c" fill-opacity="0.18"></path>
<path d="M-62.22 40.06L-58.11 38.88L-53.57 38.17L-50.24 40.09L-51.46 42.72L-55.56 43.9L-60.11 44.6L-63.43 42.68Z" fill="#6f604c" fill-opacity="0.18"></path>
<path d="M-51.24 52.4L-45.44 50.72L-41.69 50.14L-38.95 51.72L-39.95 53.89L-45.75 55.56L-49.5 56.14L-52.25 54.56Z" fill="#6f604c" fill-opacity="0.18"></path>
<path d="M38.24 102.06L42.35 100.88L46.89 100.17L50.22 102.09L49 104.72L44.89 105.9L40.35 106.6L37.03 104.68Z" fill="#6f604c" fill-opacity="0.18"></path>
<path d="M97.47 72.25L103.8 70.42L107.89 69.79L110.88 71.52L109.78 73.88L103.45 75.71L99.36 76.34L96.37 74.61Z" fill="#6f604c" fill-opacity="0.18"></path>
<path d="M6.4 11.68L11.33 10.25L16.78 9.41L20.77 11.72L19.31 14.86L14.38 16.28L8.93 17.13L4.94 14.82Z" fill="#6f604c" fill-opacity="0.18"></path>
<path d="M-55.43 35.97L64.09 104.97L43.3 116.97L-76.21 47.97Z" fill="#ede8de" stroke="#5E5242" stroke-opacity="0.42" stroke-width="0.32"></path>
<path d="M10.39 9.58L11.39 10.16L10.39 10.74L9.39 10.16Z" fill="#8a7458" stroke="#5E5242" stroke-opacity="0.42" stroke-width="0.32"></path>
<path d="M11.39 14L10.39 14.58L10.39 10.74L11.39 10.16Z" fill="#826e55" stroke="#5E5242" stroke-opacity="0.42" stroke-width="0.32"></path>
<path d="M10.39 14.58L9.39 14L9.39 10.16L10.39 10.74Z" fill="#877257" stroke="#5E5242" stroke-opacity="0.42" stroke-width="0.32"></path>
<path d="M13.77 9.65L8.51 10.06L4.67 7.95L5.14 4.9L9.56 3.21L14.61 4.15L16.48 7.01Z" fill="#9db080" stroke="#5E5242" stroke-opacity="0.42" stroke-width="0.32"></path>
<path d="M13.77 9.65L8.51 10.06L10.39 10.93Z" fill="#909a71" stroke="#5E5242" stroke-opacity="0.42" stroke-width="0.32"></path>
<path d="M13.77 6.96L8.51 7.38L4.67 5.26L5.14 2.21L9.56 0.52L14.61 1.46L16.48 4.33Z" fill="#9db080" stroke="#5E5242" stroke-opacity="0.42" stroke-width="0.32"></path>
<path d="M13.77 9.65L8.51 10.06L8.51 7.38L13.77 6.96Z" fill="#939e74" stroke="#5E5242" stroke-opacity="0.42" stroke-width="0.32"></path>
<path d="M8.51 10.06L4.67 7.95L4.67 5.26L8.51 7.38Z" fill="#97a67a" stroke="#5E5242" stroke-opacity="0.42" stroke-width="0.32"></path>
<path d="M16.48 7.01L13.77 9.65L13.77 6.96L16.48 4.33Z" fill="#909a71" stroke="#5E5242" stroke-opacity="0.42" stroke-width="0.32"></path>
<path d="M13.77 6.96L8.51 7.38L10.39 -0.21Z" fill="#9bad7e" stroke="#5E5242" stroke-opacity="0.42" stroke-width="0.32"></path>
<path d="M8.51 7.38L4.67 5.26L10.39 -0.21Z" fill="#9db080" stroke="#5E5242" stroke-opacity="0.42" stroke-width="0.32"></path>
<path d="M4.67 5.26L5.14 2.21L10.39 -0.21Z" fill="#9db080" stroke="#5E5242" stroke-opacity="0.42" stroke-width="0.32"></path>
<path d="M14.61 1.46L16.48 4.33L10.39 -0.21Z" fill="#94a176" stroke="#5E5242" stroke-opacity="0.42" stroke-width="0.32"></path>
<path d="M16.48 4.33L13.77 6.96L10.39 -0.21Z" fill="#97a579" stroke="#5E5242" stroke-opacity="0.42" stroke-width="0.32"></path>
<path d="M-10.39 8L15.59 23L-10.39 38L-36.37 23Z" fill="#fbf8f2" stroke="#5E5242" stroke-opacity="0.42" stroke-width="0.32"></path>
<path d="M15.59 31L-10.39 46L-10.39 38L15.59 23Z" fill="#d4cdc4" stroke="#5E5242" stroke-opacity="0.42" stroke-width="0.32"></path>
<path d="M-10.39 46L-36.37 31L-36.37 23L-10.39 38Z" fill="#eae6de" stroke="#5E5242" stroke-opacity="0.42" stroke-width="0.32"></path>
<path d="M-36.37 27L-10.39 42" stroke="#e2ddd4" stroke-width="0.19" fill="none"></path>
<path d="M15.59 27L-10.39 42" stroke="#e2ddd4" stroke-width="0.19" fill="none"></path>
<path d="M27.71 10L50.23 23L32.91 33L10.39 20Z" fill="#fbf8f2" stroke="#5E5242" stroke-opacity="0.42" stroke-width="0.32"></path>
<path d="M50.23 37L32.91 47L32.91 33L50.23 23Z" fill="#d4cdc4" stroke="#5E5242" stroke-opacity="0.42" stroke-width="0.32"></path>
<path d="M32.91 47L10.39 34L10.39 20L32.91 33Z" fill="#eae6de" stroke="#5E5242" stroke-opacity="0.42" stroke-width="0.32"></path>
<path d="M30.31 15.5L37.24 19.5L30.31 23.5L23.38 19.5Z" fill="#fbf8f2" stroke="#5E5242" stroke-opacity="0.42" stroke-width="0.32"></path>
<path d="M37.24 21.5L30.31 25.5L30.31 23.5L37.24 19.5Z" fill="#d4cdc4" stroke="#5E5242" stroke-opacity="0.42" stroke-width="0.32"></path>
<path d="M30.31 25.5L23.38 21.5L23.38 19.5L30.31 23.5Z" fill="#eae6de" stroke="#5E5242" stroke-opacity="0.42" stroke-width="0.32"></path>
<path d="M32.74 18.9L30.85 19.46L28.75 19.26L27.26 18.4L26.92 17.19L27.89 16.1L29.77 15.54L31.87 15.74L33.37 16.6L33.7 17.81Z" fill="#d2cfc7" stroke="#5E5242" stroke-opacity="0.42" stroke-width="0.32"></path>
<path d="M33.77 21.5L31.08 22.29L30.85 19.46L32.74 18.9Z" fill="#c4bfb5" stroke="#5E5242" stroke-opacity="0.42" stroke-width="0.32"></path>
<path d="M31.08 22.29L28.09 22.02L28.75 19.26L30.85 19.46Z" fill="#cdc9c0" stroke="#5E5242" stroke-opacity="0.42" stroke-width="0.32"></path>
<path d="M28.09 22.02L25.95 20.78L27.26 18.4L28.75 19.26Z" fill="#d2cfc7" stroke="#5E5242" stroke-opacity="0.42" stroke-width="0.32"></path>
<path d="M25.95 20.78L25.47 19.06L26.92 17.19L27.26 18.4Z" fill="#d2cfc7" stroke="#5E5242" stroke-opacity="0.42" stroke-width="0.32"></path>
<path d="M34.68 18.22L35.15 19.94L33.7 17.81L33.37 16.6Z" fill="#b6b0a5" stroke="#5E5242" stroke-opacity="0.42" stroke-width="0.32"></path>
<path d="M35.15 19.94L33.77 21.5L32.74 18.9L33.7 17.81Z" fill="#bbb6ab" stroke="#5E5242" stroke-opacity="0.42" stroke-width="0.32"></path>
<path d="M32.74 18.9L30.85 19.46L30.31 14.5Z" fill="#c9c4bb" stroke="#5E5242" stroke-opacity="0.42" stroke-width="0.32"></path>
<path d="M30.85 19.46L28.75 19.26L30.31 14.5Z" fill="#d0cdc5" stroke="#5E5242" stroke-opacity="0.42" stroke-width="0.32"></path>
<path d="M28.75 19.26L27.26 18.4L30.31 14.5Z" fill="#d2cfc7" stroke="#5E5242" stroke-opacity="0.42" stroke-width="0.32"></path>
<path d="M27.26 18.4L26.92 17.19L30.31 14.5Z" fill="#d2cfc7" stroke="#5E5242" stroke-opacity="0.42" stroke-width="0.32"></path>
<path d="M26.92 17.19L27.89 16.1L30.31 14.5Z" fill="#d0cdc5" stroke="#5E5242" stroke-opacity="0.42" stroke-width="0.32"></path>
<path d="M33.37 16.6L33.7 17.81L30.31 14.5Z" fill="#bdb7ac" stroke="#5E5242" stroke-opacity="0.42" stroke-width="0.32"></path>
<path d="M33.7 17.81L32.74 18.9L30.31 14.5Z" fill="#c1bcb2" stroke="#5E5242" stroke-opacity="0.42" stroke-width="0.32"></path>
<path d="M-58.89 38.32L-58.06 38.8L-58.89 39.28L-59.72 38.8Z" fill="#8a7458" stroke="#5E5242" stroke-opacity="0.42" stroke-width="0.32"></path>
<path d="M-58.06 42L-58.89 42.48L-58.89 39.28L-58.06 38.8Z" fill="#826e55" stroke="#5E5242" stroke-opacity="0.42" stroke-width="0.32"></path>
<path d="M-58.89 42.48L-59.72 42L-59.72 38.8L-58.89 39.28Z" fill="#877257" stroke="#5E5242" stroke-opacity="0.42" stroke-width="0.32"></path>
<path d="M-56.07 38.37L-60.45 38.72L-63.66 36.96L-63.27 34.42L-59.58 33.01L-55.38 33.79L-53.81 36.18Z" fill="#9db080" stroke="#5E5242" stroke-opacity="0.42" stroke-width="0.32"></path>
<path d="M-56.07 38.37L-60.45 38.72L-58.89 39.44Z" fill="#909a71" stroke="#5E5242" stroke-opacity="0.42" stroke-width="0.32"></path>
<path d="M-56.07 36.13L-60.45 36.48L-63.66 34.72L-63.27 32.18L-59.58 30.77L-55.38 31.55L-53.81 33.94Z" fill="#9db080" stroke="#5E5242" stroke-opacity="0.42" stroke-width="0.32"></path>
<path d="M-56.07 38.37L-60.45 38.72L-60.45 36.48L-56.07 36.13Z" fill="#939e74" stroke="#5E5242" stroke-opacity="0.42" stroke-width="0.32"></path>
<path d="M-60.45 38.72L-63.66 36.96L-63.66 34.72L-60.45 36.48Z" fill="#97a67a" stroke="#5E5242" stroke-opacity="0.42" stroke-width="0.32"></path>
<path d="M-53.81 36.18L-56.07 38.37L-56.07 36.13L-53.81 33.94Z" fill="#909a71" stroke="#5E5242" stroke-opacity="0.42" stroke-width="0.32"></path>
<path d="M-56.07 36.13L-60.45 36.48L-58.89 30.16Z" fill="#9bad7e" stroke="#5E5242" stroke-opacity="0.42" stroke-width="0.32"></path>
<path d="M-60.45 36.48L-63.66 34.72L-58.89 30.16Z" fill="#9db080" stroke="#5E5242" stroke-opacity="0.42" stroke-width="0.32"></path>
<path d="M-63.66 34.72L-63.27 32.18L-58.89 30.16Z" fill="#9db080" stroke="#5E5242" stroke-opacity="0.42" stroke-width="0.32"></path>
<path d="M-55.38 31.55L-53.81 33.94L-58.89 30.16Z" fill="#94a176" stroke="#5E5242" stroke-opacity="0.42" stroke-width="0.32"></path>
<path d="M-53.81 33.94L-56.07 36.13L-58.89 30.16Z" fill="#97a579" stroke="#5E5242" stroke-opacity="0.42" stroke-width="0.32"></path>
<path d="M19.05 42.8L71.01 72.8L50.23 84.8L-1.73 54.8Z" fill="#bcd2d4" stroke="#5E5242" stroke-opacity="0.42" stroke-width="0.32"></path>
<path d="M71.01 77L50.23 89L50.23 84.8L71.01 72.8Z" fill="#a6b2ae" stroke="#5E5242" stroke-opacity="0.42" stroke-width="0.32"></path>
<path d="M50.23 89L-1.73 59L-1.73 54.8L50.23 84.8Z" fill="#b3c4c4" stroke="#5E5242" stroke-opacity="0.42" stroke-width="0.32"></path>
<path d="M1.73 61L1.73 56.8" stroke="#adbbb9" stroke-width="0.19" fill="none"></path>
<path d="M5.2 63L5.2 58.8" stroke="#adbbb9" stroke-width="0.19" fill="none"></path>
<path d="M8.66 65L8.66 60.8" stroke="#adbbb9" stroke-width="0.19" fill="none"></path>
<path d="M12.12 67L12.12 62.8" stroke="#adbbb9" stroke-width="0.19" fill="none"></path>
<path d="M15.59 69L15.59 64.8" stroke="#adbbb9" stroke-width="0.19" fill="none"></path>
<path d="M19.05 71L19.05 66.8" stroke="#adbbb9" stroke-width="0.19" fill="none"></path>
<path d="M22.52 73L22.52 68.8" stroke="#adbbb9" stroke-width="0.19" fill="none"></path>
<path d="M25.98 75L25.98 70.8" stroke="#adbbb9" stroke-width="0.19" fill="none"></path>
<path d="M29.44 77L29.44 72.8" stroke="#adbbb9" stroke-width="0.19" fill="none"></path>
<path d="M32.91 79L32.91 74.8" stroke="#adbbb9" stroke-width="0.19" fill="none"></path>
<path d="M36.37 81L36.37 76.8" stroke="#adbbb9" stroke-width="0.19" fill="none"></path>
<path d="M39.84 83L39.84 78.8" stroke="#adbbb9" stroke-width="0.19" fill="none"></path>
<path d="M43.3 85L43.3 80.8" stroke="#adbbb9" stroke-width="0.19" fill="none"></path>
<path d="M46.77 87L46.77 82.8" stroke="#adbbb9" stroke-width="0.19" fill="none"></path>
<path d="M67.55 79L67.55 74.8" stroke="#adbbb9" stroke-width="0.19" fill="none"></path>
<path d="M64.09 81L64.09 76.8" stroke="#adbbb9" stroke-width="0.19" fill="none"></path>
<path d="M60.62 83L60.62 78.8" stroke="#adbbb9" stroke-width="0.19" fill="none"></path>
<path d="M57.16 85L57.16 80.8" stroke="#adbbb9" stroke-width="0.19" fill="none"></path>
<path d="M53.69 87L53.69 82.8" stroke="#adbbb9" stroke-width="0.19" fill="none"></path>
<path d="M19.05 38.4L74.48 70.4L50.23 84.4L-5.2 52.4Z" fill="#fbf8f2" stroke="#5E5242" stroke-opacity="0.42" stroke-width="0.32"></path>
<path d="M74.48 72.8L50.23 86.8L50.23 84.4L74.48 70.4Z" fill="#d4cdc4" stroke="#5E5242" stroke-opacity="0.42" stroke-width="0.32"></path>
<path d="M50.23 86.8L-5.2 54.8L-5.2 52.4L50.23 84.4Z" fill="#eae6de" stroke="#5E5242" stroke-opacity="0.42" stroke-width="0.32"></path>
<path d="M48.5 58L67.55 69L51.96 78L32.91 67Z" fill="#fbf8f2" stroke="#5E5242" stroke-opacity="0.42" stroke-width="0.32"></path>
<path d="M67.55 72.4L51.96 81.4L51.96 78L67.55 69Z" fill="#d4cdc4" stroke="#5E5242" stroke-opacity="0.42" stroke-width="0.32"></path>
<path d="M51.96 81.4L32.91 70.4L32.91 67L51.96 78Z" fill="#eae6de" stroke="#5E5242" stroke-opacity="0.42" stroke-width="0.32"></path>
<path d="M-48.5 51.01L-47.58 51.54L-48.5 52.06L-49.41 51.54Z" fill="#8a7458" stroke="#5E5242" stroke-opacity="0.42" stroke-width="0.32"></path>
<path d="M-47.58 54L-48.5 54.53L-48.5 52.06L-47.58 51.54Z" fill="#826e55" stroke="#5E5242" stroke-opacity="0.42" stroke-width="0.32"></path>
<path d="M-48.5 54.53L-49.41 54L-49.41 51.54L-48.5 52.06Z" fill="#877257" stroke="#5E5242" stroke-opacity="0.42" stroke-width="0.32"></path>
<path d="M-46.08 54.53L-50.57 54.62L-48.5 43.09Z" fill="#849669" stroke="#5E5242" stroke-opacity="0.42" stroke-width="0.32"></path>
<path d="M-50.57 54.62L-53.5 52.66L-48.5 43.09Z" fill="#869b6b" stroke="#5E5242" stroke-opacity="0.42" stroke-width="0.32"></path>
<path d="M-53.5 52.66L-52.66 50.11L-48.5 43.09Z" fill="#85996b" stroke="#5E5242" stroke-opacity="0.42" stroke-width="0.32"></path>
<path d="M-44.57 49.94L-43.42 52.45L-48.5 43.09Z" fill="#808b63" stroke="#5E5242" stroke-opacity="0.42" stroke-width="0.32"></path>
<path d="M-43.42 52.45L-46.08 54.53L-48.5 43.09Z" fill="#808e64" stroke="#5E5242" stroke-opacity="0.42" stroke-width="0.32"></path>
<path d="M-48.17 49.19L-51.31 48.5L-48.5 38.16Z" fill="#84986a" stroke="#5E5242" stroke-opacity="0.42" stroke-width="0.32"></path>
<path d="M-51.31 48.5L-52.34 46.65L-48.5 38.16Z" fill="#859a6b" stroke="#5E5242" stroke-opacity="0.42" stroke-width="0.32"></path>
<path d="M-44.8 46.28L-45.27 48.2L-48.5 38.16Z" fill="#808b63" stroke="#5E5242" stroke-opacity="0.42" stroke-width="0.32"></path>
<path d="M-45.27 48.2L-48.17 49.19L-48.5 38.16Z" fill="#819065" stroke="#5E5242" stroke-opacity="0.42" stroke-width="0.32"></path>
<path d="M100.46 70.74L101.46 71.31L100.46 71.89L99.46 71.31Z" fill="#8a7458" stroke="#5E5242" stroke-opacity="0.42" stroke-width="0.32"></path>
<path d="M101.46 74L100.46 74.58L100.46 71.89L101.46 71.31Z" fill="#826e55" stroke="#5E5242" stroke-opacity="0.42" stroke-width="0.32"></path>
<path d="M100.46 74.58L99.46 74L99.46 71.31L100.46 71.89Z" fill="#877257" stroke="#5E5242" stroke-opacity="0.42" stroke-width="0.32"></path>
<path d="M103.09 74.58L98.2 74.68L100.46 62.1Z" fill="#849669" stroke="#5E5242" stroke-opacity="0.42" stroke-width="0.32"></path>
<path d="M98.2 74.68L95.01 72.54L100.46 62.1Z" fill="#869b6b" stroke="#5E5242" stroke-opacity="0.42" stroke-width="0.32"></path>
<path d="M95.01 72.54L95.92 69.76L100.46 62.1Z" fill="#85996b" stroke="#5E5242" stroke-opacity="0.42" stroke-width="0.32"></path>
<path d="M104.74 69.57L106 72.3L100.46 62.1Z" fill="#808b63" stroke="#5E5242" stroke-opacity="0.42" stroke-width="0.32"></path>
<path d="M106 72.3L103.09 74.58L100.46 62.1Z" fill="#808e64" stroke="#5E5242" stroke-opacity="0.42" stroke-width="0.32"></path>
<path d="M100.82 68.75L97.39 68L100.46 56.72Z" fill="#84986a" stroke="#5E5242" stroke-opacity="0.42" stroke-width="0.32"></path>
<path d="M97.39 68L96.27 65.98L100.46 56.72Z" fill="#859a6b" stroke="#5E5242" stroke-opacity="0.42" stroke-width="0.32"></path>
<path d="M104.49 65.57L103.98 67.68L100.46 56.72Z" fill="#808b63" stroke="#5E5242" stroke-opacity="0.42" stroke-width="0.32"></path>
<path d="M103.98 67.68L100.82 68.75L100.46 56.72Z" fill="#819065" stroke="#5E5242" stroke-opacity="0.42" stroke-width="0.32"></path>
<path d="M41.57 100.32L42.4 100.8L41.57 101.28L40.74 100.8Z" fill="#8a7458" stroke="#5E5242" stroke-opacity="0.42" stroke-width="0.32"></path>
<path d="M42.4 104L41.57 104.48L41.57 101.28L42.4 100.8Z" fill="#826e55" stroke="#5E5242" stroke-opacity="0.42" stroke-width="0.32"></path>
<path d="M41.57 104.48L40.74 104L40.74 100.8L41.57 101.28Z" fill="#877257" stroke="#5E5242" stroke-opacity="0.42" stroke-width="0.32"></path>
<path d="M44.38 100.37L40 100.72L36.8 98.96L37.19 96.42L40.88 95.01L45.08 95.79L46.64 98.18Z" fill="#9db080" stroke="#5E5242" stroke-opacity="0.42" stroke-width="0.32"></path>
<path d="M44.38 100.37L40 100.72L41.57 101.44Z" fill="#909a71" stroke="#5E5242" stroke-opacity="0.42" stroke-width="0.32"></path>
<path d="M44.38 98.13L40 98.48L36.8 96.72L37.19 94.18L40.88 92.77L45.08 93.55L46.64 95.94Z" fill="#9db080" stroke="#5E5242" stroke-opacity="0.42" stroke-width="0.32"></path>
<path d="M44.38 100.37L40 100.72L40 98.48L44.38 98.13Z" fill="#939e74" stroke="#5E5242" stroke-opacity="0.42" stroke-width="0.32"></path>
<path d="M40 100.72L36.8 98.96L36.8 96.72L40 98.48Z" fill="#97a67a" stroke="#5E5242" stroke-opacity="0.42" stroke-width="0.32"></path>
<path d="M46.64 98.18L44.38 100.37L44.38 98.13L46.64 95.94Z" fill="#909a71" stroke="#5E5242" stroke-opacity="0.42" stroke-width="0.32"></path>
<path d="M44.38 98.13L40 98.48L41.57 92.16Z" fill="#9bad7e" stroke="#5E5242" stroke-opacity="0.42" stroke-width="0.32"></path>
<path d="M40 98.48L36.8 96.72L41.57 92.16Z" fill="#9db080" stroke="#5E5242" stroke-opacity="0.42" stroke-width="0.32"></path>
<path d="M36.8 96.72L37.19 94.18L41.57 92.16Z" fill="#9db080" stroke="#5E5242" stroke-opacity="0.42" stroke-width="0.32"></path>
<path d="M45.08 93.55L46.64 95.94L41.57 92.16Z" fill="#94a176" stroke="#5E5242" stroke-opacity="0.42" stroke-width="0.32"></path>
<path d="M46.64 95.94L44.38 98.13L41.57 92.16Z" fill="#97a579" stroke="#5E5242" stroke-opacity="0.42" stroke-width="0.32"></path>
</svg>