<svg xmlns="http://www.w3.org/2000/svg" viewBox="-92.32 -10.17 201.96 128.34" width="560" height="356" stroke-linejoin="round" xmlns:c2pa="http://c2pa.org/manifest"><metadata><c2pa:manifest>AAAWgmp1bWIAAAAeanVtZGMycGEAEQAQgAAAqgA4m3EDYzJwYQAAABZcanVtYgAAAEdqdW1kYzJtYQARABCAAACqADibcQN1cm46YzJwYTphMjA3ZTI3YS04MWIwLTQ5ZjctODRlYS1mZDZkMzY5YmIyNTMAAAADl2p1bWIAAAApanVtZGMyYXMAEQAQgAAAqgA4m3EDYzJwYS5hc3NlcnRpb25zAAAAALxqdW1iAAAARGp1bWRjYm9yABEAEIAAAKoAOJtxE2MycGEuaW5ncmVkaWVudC52MwAAAAAYYzJzaNd5z+pxk4AwXUkQXN3hFO8AAABwY2JvcqNpZGM6Zm9ybWF0bWltYWdlL3N2Zyt4bWxqaW5zdGFuY2VJRHgseG1wOmlpZDo0NGZmOGVjZC0wNDlmLTQzZWEtODlhZC0wYTVhYWE3NTI3NmJscmVsYXRpb25zaGlwaHBhcmVudE9mAAAB4mp1bWIAAABBanVtZGNib3IAEQAQgAAAqgA4m3ETYzJwYS5hY3Rpb25zLnYyAAAAABhjMnNo6QIL8CnQrfaGCDeMOFsW7gAAAZljYm9yomdhY3Rpb25zgqJmYWN0aW9ua2MycGEub3BlbmVkanBhcmFtZXRlcnOha2luZ3JlZGllbnRzgaJjdXJseC1zZWxmI2p1bWJmPWMycGEuYXNzZXJ0aW9ucy9jMnBhLmluZ3JlZGllbnQudjNkaGFzaFggCVYtfc/6rR6YCC09woHFUb5zt4ns2PrUSPHh0MZjkMGkZmFjdGlvbngdY29tLmFudGhyb3BpYy5jbGF1ZGUucHJvdmlkZWRqcGFyYW1ldGVyc6F4H2NvbS5hbnRocm9waWMub3JpZ2luLWNvbmZpZGVuY2VndW5rbm93bmtkZXNjcmlwdGlvbnhmQ2xhdWRlIHByb3ZpZGVkIHRoaXMgZmlsZSBhdCB0aGUgcmVxdWVzdCBvZiBhIHVzZXIgYW5kIG1heSBoYXZlIGNyZWF0ZWQgb3IgbW9kaWZpZWQgdGhlIGZpbGUgY29udGVudHMubXNvZnR3YXJlQWdlbnShZG5hbWVmQ2xhdWRlcmFsbEFjdGlvbnNJbmNsdWRlZPUAAADIanVtYgAAAEBqdW1kY2JvcgARABCAAACqADibcRNjMnBhLmhhc2guZGF0YQAAAAAYYzJzaKjvYCcgClnhYc1DTmxXproAAACAY2JvcqVjYWxnZnNoYTI1NmNwYWRNAAAAAAAAAAAAAAAAAGRoYXNoWCADtmfPerPx/XPToMfNrSCf1qs6rhOv6GrjtLoWUQSMd2RuYW1lbmp1bWJmIG1hbmlmZXN0amV4Y2x1c2lvbnOBomVzdGFydBi+Zmxlbmd0aBkeBAAAAj5qdW1iAAAAJ2p1bWRjMmNsABEAEIAAAKoAOJtxA2MycGEuY2xhaW0udjIAAAACD2Nib3KlY2FsZ2ZzaGEyNTZpc2lnbmF0dXJleE1zZWxmI2p1bWJmPS9jMnBhL3VybjpjMnBhOmEyMDdlMjdhLTgxYjAtNDlmNy04NGVhLWZkNmQzNjliYjI1My9jMnBhLnNpZ25hdHVyZWppbnN0YW5jZUlEeCx4bXA6aWlkOmQ3ZWI0ODNmLWY0OTItNDEwMS04OTcxLWJlMjAwMWJmMGMyN3JjcmVhdGVkX2Fzc2VydGlvbnODomN1cmx4LXNlbGYjanVtYmY9YzJwYS5hc3NlcnRpb25zL2MycGEuaW5ncmVkaWVudC52M2RoYXNoWCAJVi19z/qtHpgILT3CgcVRvnO3iezY+tRI8eHQxmOQwaJjdXJseCpzZWxmI2p1bWJmPWMycGEuYXNzZXJ0aW9ucy9jMnBhLmFjdGlvbnMudjJkaGFzaFggvH3rpee4HIZFEhVhZodTWwwHmSC/brP4WMHCtzX2aL6iY3VybHgpc2VsZiNqdW1iZj1jMnBhLmFzc2VydGlvbnMvYzJwYS5oYXNoLmRhdGFkaGFzaFgguVI/S4eZ9jCMsTCAWJqnGueHgET+Iv7z2oiimsbk4iN0Y2xhaW1fZ2VuZXJhdG9yX2luZm+jZG5hbWVvQW50aHJvcGljIEZpbGVzZ3ZlcnNpb25lMS4wLjBrc3BlY1ZlcnNpb25lMi40LjAAABA4anVtYgAAAChqdW1kYzJjcwARABCAAACqADibcQNjMnBhLnNpZ25hdHVyZQAAABAIY2JvctKEWQISogEmGCFZAgowggIGMIIBjaADAgECAhRA5aAK7sI50L64g/oGQgU9Z1UTADAKBggqhkjOPQQDAzBJMRcwFQYDVQQKEw5BbnRocm9waWMsIFBCQzEuMCwGA1UEAxMlQW50aHJvcGljIENvbnRlbnQgQ3JlZGVudGlhbHMgUm9vdCBDQTAeFw0yNjA4MDcxODQzNTZaFw0yODA4MDYxOTQzNTZaMEQxFzAVBgNVBAoTDkFudGhyb3BpYywgUEJDMSkwJwYDVQQDEyBBbnRocm9waWMgQ2xhdWRlIENvbnRlbnQgU2lnbmluZzBZMBMGByqGSM49AgEGCCqGSM49AwEHA0IABJh6CmvLUBgFFNU0vUKlOVtE6djd17L5SuwX0LemFisBM3dkd/3cyjxFA3Qo5S46fX0/ihY0VZ7mfb9KF703t5OjWDBWMA4GA1UdDwEB/wQEAwIHgDAVBgNVHSUEDjAMBgorBgEEAYPoXgIBMAwGA1UdEwEB/wQCMAAwHwYDVR0jBBgwFoAUzlHiBIFOZFsj+OPEz5o+nMHXXMIwCgYIKoZIzj0EAwMDZwAwZAIwMXMdFJ4BetLLVY7ORuE9noqbbAZOZn/aArXyTwFAZfKrPzxF2vPoJNf1+UCdg1XGAjBwX1zd9WGqYkqmL5SFqw1QySjr1zJfpJM9+1rdDwSPLMOPOjKuiXjoU/pUUeG9RwmhY3BhZFkNngAAAAAAAAAAAAAAAAAAAAAAAAAAAAAAAAAAAAAAAAAAAAAAAAAAAAAAAAAAAAAAAAAAAAAAAAAAAAAAAAAAAAAAAAAAAAAAAAAAAAAAAAAAAAAAAAAAAAAAAAAAAAAAAAAAAAAAAAAAAAAAAAAAAAAAAAAAAAAAAAAAAAAAAAAAAAAAAAAAAAAAAAAAAAAAAAAAAAAAAAAAAAAAAAAAAAAAAAAAAAAAAAAAAAAAAAAAAAAAAAAAAAAAAAAAAAAAAAAAAAAAAAAAAAAAAAAAAAAAAAAAAAAAAAAAAAAAAAAAAAAAAAAAAAAAAAAAAAAAAAAAAAAAAAAAAAAAAAAAAAAAAAAAAAAAAAAAAAAAAAAAAAAAAAAAAAAAAAAAAAAAAAAAAAAAAAAAAAAAAAAAAAAAAAAAAAAAAAAAAAAAAAAAAAAAAAAAAAAAAAAAAAAAAAAAAAAAAAAAAAAAAAAAAAAAAAAAAAAAAAAAAAAAAAAAAAAAAAAAAAAAAAAAAAAAAAAAAAAAAAAAAAAAAAAAAAAAAAAAAAAAAAAAAAAAAAAAAAAAAAAAAAAAAAAAAAAAAAAAAAAAAAAAAAAAAAAAAAAAAAAAAAAAAAAAAAAAAAAAAAAAAAAAAAAAAAAAAAAAAAAAAAAAAAAAAAAAAAAAAAAAAAAAAAAAAAAAAAAAAAAAAAAAAAAAAAAAAAAAAAAAAAAAAAAAAAAAAAAAAAAAAAAAAAAAAAAAAAAAAAAAAAAAAAAAAAAAAAAAAAAAAAAAAAAAAAAAAAAAAAAAAAAAAAAAAAAAAAAAAAAAAAAAAAAAAAAAAAAAAAAAAAAAAAAAAAAAAAAAAAAAAAAAAAAAAAAAAAAAAAAAAAAAAAAAAAAAAAAAAAAAAAAAAAAAAAAAAAAAAAAAAAAAAAAAAAAAAAAAAAAAAAAAAAAAAAAAAAAAAAAAAAAAAAAAAAAAAAAAAAAAAAAAAAAAAAAAAAAAAAAAAAAAAAAAAAAAAAAAAAAAAAAAAAAAAAAAAAAAAAAAAAAAAAAAAAAAAAAAAAAAAAAAAAAAAAAAAAAAAAAAAAAAAAAAAAAAAAAAAAAAAAAAAAAAAAAAAAAAAAAAAAAAAAAAAAAAAAAAAAAAAAAAAAAAAAAAAAAAAAAAAAAAAAAAAAAAAAAAAAAAAAAAAAAAAAAAAAAAAAAAAAAAAAAAAAAAAAAAAAAAAAAAAAAAAAAAAAAAAAAAAAAAAAAAAAAAAAAAAAAAAAAAAAAAAAAAAAAAAAAAAAAAAAAAAAAAAAAAAAAAAAAAAAAAAAAAAAAAAAAAAAAAAAAAAAAAAAAAAAAAAAAAAAAAAAAAAAAAAAAAAAAAAAAAAAAAAAAAAAAAAAAAAAAAAAAAAAAAAAAAAAAAAAAAAAAAAAAAAAAAAAAAAAAAAAAAAAAAAAAAAAAAAAAAAAAAAAAAAAAAAAAAAAAAAAAAAAAAAAAAAAAAAAAAAAAAAAAAAAAAAAAAAAAAAAAAAAAAAAAAAAAAAAAAAAAAAAAAAAAAAAAAAAAAAAAAAAAAAAAAAAAAAAAAAAAAAAAAAAAAAAAAAAAAAAAAAAAAAAAAAAAAAAAAAAAAAAAAAAAAAAAAAAAAAAAAAAAAAAAAAAAAAAAAAAAAAAAAAAAAAAAAAAAAAAAAAAAAAAAAAAAAAAAAAAAAAAAAAAAAAAAAAAAAAAAAAAAAAAAAAAAAAAAAAAAAAAAAAAAAAAAAAAAAAAAAAAAAAAAAAAAAAAAAAAAAAAAAAAAAAAAAAAAAAAAAAAAAAAAAAAAAAAAAAAAAAAAAAAAAAAAAAAAAAAAAAAAAAAAAAAAAAAAAAAAAAAAAAAAAAAAAAAAAAAAAAAAAAAAAAAAAAAAAAAAAAAAAAAAAAAAAAAAAAAAAAAAAAAAAAAAAAAAAAAAAAAAAAAAAAAAAAAAAAAAAAAAAAAAAAAAAAAAAAAAAAAAAAAAAAAAAAAAAAAAAAAAAAAAAAAAAAAAAAAAAAAAAAAAAAAAAAAAAAAAAAAAAAAAAAAAAAAAAAAAAAAAAAAAAAAAAAAAAAAAAAAAAAAAAAAAAAAAAAAAAAAAAAAAAAAAAAAAAAAAAAAAAAAAAAAAAAAAAAAAAAAAAAAAAAAAAAAAAAAAAAAAAAAAAAAAAAAAAAAAAAAAAAAAAAAAAAAAAAAAAAAAAAAAAAAAAAAAAAAAAAAAAAAAAAAAAAAAAAAAAAAAAAAAAAAAAAAAAAAAAAAAAAAAAAAAAAAAAAAAAAAAAAAAAAAAAAAAAAAAAAAAAAAAAAAAAAAAAAAAAAAAAAAAAAAAAAAAAAAAAAAAAAAAAAAAAAAAAAAAAAAAAAAAAAAAAAAAAAAAAAAAAAAAAAAAAAAAAAAAAAAAAAAAAAAAAAAAAAAAAAAAAAAAAAAAAAAAAAAAAAAAAAAAAAAAAAAAAAAAAAAAAAAAAAAAAAAAAAAAAAAAAAAAAAAAAAAAAAAAAAAAAAAAAAAAAAAAAAAAAAAAAAAAAAAAAAAAAAAAAAAAAAAAAAAAAAAAAAAAAAAAAAAAAAAAAAAAAAAAAAAAAAAAAAAAAAAAAAAAAAAAAAAAAAAAAAAAAAAAAAAAAAAAAAAAAAAAAAAAAAAAAAAAAAAAAAAAAAAAAAAAAAAAAAAAAAAAAAAAAAAAAAAAAAAAAAAAAAAAAAAAAAAAAAAAAAAAAAAAAAAAAAAAAAAAAAAAAAAAAAAAAAAAAAAAAAAAAAAAAAAAAAAAAAAAAAAAAAAAAAAAAAAAAAAAAAAAAAAAAAAAAAAAAAAAAAAAAAAAAAAAAAAAAAAAAAAAAAAAAAAAAAAAAAAAAAAAAAAAAAAAAAAAAAAAAAAAAAAAAAAAAAAAAAAAAAAAAAAAAAAAAAAAAAAAAAAAAAAAAAAAAAAAAAAAAAAAAAAAAAAAAAAAAAAAAAAAAAAAAAAAAAAAAAAAAAAAAAAAAAAAAAAAAAAAAAAAAAAAAAAAAAAAAAAAAAAAAAAAAAAAAAAAAAAAAAAAAAAAAAAAAAAAAAAAAAAAAAAAAAAAAAAAAAAAAAAAAAAAAAAAAAAAAAAAAAAAAAAAAAAAAAAAAAAAAAAAAAAAAAAAAAAAAAAAAAAAAAAAAAAAAAAAAAAAAAAAAAAAAAAAAAAAAAAAAAAAAAAAAAAAAAAAAAAAAAAAAAAAAAAAAAAAAAAAAAAAAAAAAAAAAAAAAAAAAAAAAAAAAAAAAAAAAAAAAAAAAAAAAAAAAAAAAAAAAAAAAAAAAAAAAAAAAAAAAAAAAAAAAAAAAAAAAAAAAAAAAAAAAAAAAAAAAAAAAAAAAAAAAAAAAAAAAAAAAAAAAAAAAAAAAAAAAAAAAAAAAAAAAAAAAAAAAAAAAAAAAAAAAAAAAAAAAAAAAAAAAAAAAAAAAAAAAAAAAAAAAAAAAAAAAAAAAAAAAAAAAAAAAAAAAAAAAAAAAAAAAAAAAAAAAAAAAAAAAAAAAAAAAAAAAAAAAAAAAAAAAAAAAAAAAAAAAAAAAAAAAAAAAAAAAAAAAAAAAAAAAAAAAAAAAAAAAAAAAAAAAAAAAAAAAAAAAAAAAAAAAAAAAAAAAAAAAAAAAAAAAAAAAAAAAAAAAAAAAAAAAAAAAAAAAAAAAAAAAAAAAAAAAAAAAAAAAAAAAAAAAAAAAAAAAAAAAAAAAAAAAAAAAAAAAAAAAAAAAAAAAAAAAAAAAAAAAAAAAAAAAAAAAAAAAAAAAAAAAAAAAAAAAAAAAAAAAAAAAAAAAAAAAAAAAAAAAAAAAAAAAAAAAAAAAAAAAAAAAAAAAAAAAAAAAAAAAAAAAAAAAAAAAAAAAAAAAAAAAAAAAAAAAAAAAAAAAAAAAAAAAAAAAAAAAAAAAAAAAAAAAAAAAAAAAAAAAAAAAAAAAAAAAAAAAAAAAAAAAAAAAAAAAAAAAAAAAAAAAAAAAAAAAAAAAAAAAAAAAAAAAAAAAAAAAAAAAAAAAAAAAAAAAAAAAAAAAAAAAAAAAAAAAAAAAAAAAAAAAAAAAAAAAAAAAAAAAAAAAAAAAAAAAAAAAAAAAAAAAAAAAAAAAAAAAAAAAAAAAAAAAAAAAAAAAAAAAAAAAAAAAAAAAAAAAAAAAAAAAAAAAAAAAAAAAAAAAAAAAAAAAAAAAAAAAAAAAAAAAAAAAAAAAAAAAAAAAAAAAAAAAAAAAAAAAAAAAAAAAAAAAAAAAAAAAAAAAAAAAAAAAAAAAAAAAAAAAAAAAAAAAAAAAAAAAAAAAAAAAAAAAAAAAAAAAAAAAAAAAAAAAAAAAAAAAAAAAAAAAAAAAAAAAAAAAAAAAAAAAAAAAAAAAAAAAAAAAAAAAAAAAAAAAAAAAAAAAAAAAAAAAAAAAAAAAAAAAAAAAAAAAAAAAAAAAAAAAAAAAAAAAAAAAAAAAAAAAAAAAAAAAAAAAAAAAAAAAAAAAAAAAAAAAAAAAAAAAAAAAAAAAAAAAAAAAAAAAAAAAAAAAAAAAAAAAAAAAAAAAAAAAAAAAAAAAAAAAAAAAAAAAAAAAAAAAAAAAAAAAAAAAAAAAAAAAAAAAAAAAAAAAAAAAAAAAAAAAAAAAAAAAAAAAAAAAAAAAAAAAAAAAAAAAAAAAAAAAAAAAAAAAAAAAAAAAAAAAAAAAAAAAAAAAAAAAAAAAAAAAAPZYQAuQJYRbK7zR5DdE9DmzRTbZPIKzCRVhJWNUSdUlOn/yvnJjBWMLA0TqY85YP1E6xHUnAOqhSrjv1o/A9oLc8Sg=</c2pa:manifest></metadata>
<path d="M0 0L100.46 58L17.32 106L-83.14 48Z" fill="#e6dfd0" stroke="#5E5242" stroke-opacity="0.42" stroke-width="0.32"></path>
<path d="M100.46 61L17.32 109L17.32 106L100.46 58Z" fill="#c5bbab" stroke="#5E5242" stroke-opacity="0.42" stroke-width="0.32"></path>
<path d="M17.32 109L-83.14 51L-83.14 48L17.32 106Z" fill="#d8d0c0" stroke="#5E5242" stroke-opacity="0.42" stroke-width="0.32"></path>
<path d="M-83.14 49.5L17.32 107.5" stroke="#d4ccbc" stroke-width="0.16" fill="none"></path>
<path d="M100.46 59.5L17.32 107.5" stroke="#d4ccbc" stroke-width="0.16" fill="none"></path>
<path d="M60.62 38.98L75.28 34.75L88.27 42.25L75.28 49.75L60.62 53.98L47.63 46.48Z" fill="#6f604c" fill-opacity="0.18"></path>
<path d="M1.73 18.98L6.5 17.61L44.6 39.6L16.89 55.6L12.12 56.98L-25.98 34.98Z" fill="#6f604c" fill-opacity="0.18"></path>
<path d="M-25.98 34.98L-23.78 34.35L14.32 56.35L6.53 60.85L4.33 61.48L-33.77 39.48Z" fill="#6f604c" fill-opacity="0.18"></path>
<path d="M-14.05 11.87L-9.54 10.56L-4.54 9.79L-0.88 11.9L-2.22 14.79L-6.73 16.09L-11.73 16.87L-15.39 14.75Z" fill="#6f604c" fill-opacity="0.18"></path>
<path d="M-34.84 23.87L-30.32 22.56L-25.32 21.79L-21.67 23.9L-23 26.79L-27.52 28.09L-32.52 28.87L-36.17 26.75Z" fill="#6f604c" fill-opacity="0.18"></path>
<path d="M6.73 87.87L11.25 86.56L16.25 85.79L19.9 87.9L18.56 90.79L14.05 92.09L9.05 92.87L5.4 90.75Z" fill="#6f604c" fill-opacity="0.18"></path>
<path d="M30.98 77.87L35.5 76.56L40.49 75.79L44.15 77.9L42.81 80.79L38.3 82.09L33.3 82.87L29.64 80.75Z" fill="#6f604c" fill-opacity="0.18"></path>
<path d="M-45.03 35.97L38.11 83.97L12.12 98.97L-71.01 50.97Z" fill="#ede8de" stroke="#5E5242" stroke-opacity="0.42" stroke-width="0.32"></path>
<path d="M-10.39 9.95L-9.48 10.48L-10.39 11.01L-11.31 10.48Z" fill="#8a7458" stroke="#5E5242" stroke-opacity="0.42" stroke-width="0.32"></path>
<path d="M-9.48 14L-10.39 14.53L-10.39 11.01L-9.48 10.48Z" fill="#826e55" stroke="#5E5242" stroke-opacity="0.42" stroke-width="0.32"></path>
<path d="M-10.39 14.53L-11.31 14L-11.31 10.48L-10.39 11.01Z" fill="#877257" stroke="#5E5242" stroke-opacity="0.42" stroke-width="0.32"></path>
<path d="M-7.3 10.01L-12.11 10.39L-15.64 8.45L-15.21 5.66L-11.16 4.11L-6.53 4.97L-4.81 7.6Z" fill="#9db080" stroke="#5E5242" stroke-opacity="0.42" stroke-width="0.32"></path>
<path d="M-7.3 10.01L-12.11 10.39L-10.39 11.18Z" fill="#909a71" stroke="#5E5242" stroke-opacity="0.42" stroke-width="0.32"></path>
<path d="M-7.3 7.54L-12.11 7.93L-15.64 5.99L-15.21 3.19L-11.16 1.64L-6.53 2.5L-4.81 5.13Z" fill="#9db080" stroke="#5E5242" stroke-opacity="0.42" stroke-width="0.32"></path>
<path d="M-7.3 10.01L-12.11 10.39L-12.11 7.93L-7.3 7.54Z" fill="#939e74" stroke="#5E5242" stroke-opacity="0.42" stroke-width="0.32"></path>
<path d="M-12.11 10.39L-15.64 8.45L-15.64 5.99L-12.11 7.93Z" fill="#97a67a" stroke="#5E5242" stroke-opacity="0.42" stroke-width="0.32"></path>
<path d="M-4.81 7.6L-7.3 10.01L-7.3 7.54L-4.81 5.13Z" fill="#909a71" stroke="#5E5242" stroke-opacity="0.42" stroke-width="0.32"></path>
<path d="M-7.3 7.54L-12.11 7.93L-10.39 0.98Z" fill="#9bad7e" stroke="#5E5242" stroke-opacity="0.42" stroke-width="0.32"></path>
<path d="M-12.11 7.93L-15.64 5.99L-10.39 0.98Z" fill="#9db080" stroke="#5E5242" stroke-opacity="0.42" stroke-width="0.32"></path>
<path d="M-15.64 5.99L-15.21 3.19L-10.39 0.98Z" fill="#9db080" stroke="#5E5242" stroke-opacity="0.42" stroke-width="0.32"></path>
<path d="M-6.53 2.5L-4.81 5.13L-10.39 0.98Z" fill="#94a176" stroke="#5E5242" stroke-opacity="0.42" stroke-width="0.32"></path>
<path d="M-4.81 5.13L-7.3 7.54L-10.39 0.98Z" fill="#97a579" stroke="#5E5242" stroke-opacity="0.42" stroke-width="0.32"></path>
<path d="M-31.18 21.95L-30.26 22.48L-31.18 23.01L-32.09 22.48Z" fill="#8a7458" stroke="#5E5242" stroke-opacity="0.42" stroke-width="0.32"></path>
<path d="M-30.26 26L-31.18 26.53L-31.18 23.01L-30.26 22.48Z" fill="#826e55" stroke="#5E5242" stroke-opacity="0.42" stroke-width="0.32"></path>
<path d="M-31.18 26.53L-32.09 26L-32.09 22.48L-31.18 23.01Z" fill="#877257" stroke="#5E5242" stroke-opacity="0.42" stroke-width="0.32"></path>
<path d="M-28.08 22.01L-32.9 22.39L-36.42 20.45L-35.99 17.66L-31.94 16.11L-27.31 16.97L-25.59 19.6Z" fill="#9db080" stroke="#5E5242" stroke-opacity="0.42" stroke-width="0.32"></path>
<path d="M-28.08 22.01L-32.9 22.39L-31.18 23.18Z" fill="#909a71" stroke="#5E5242" stroke-opacity="0.42" stroke-width="0.32"></path>
<path d="M-28.08 19.54L-32.9 19.93L-36.42 17.99L-35.99 15.19L-31.94 13.64L-27.31 14.5L-25.59 17.13Z" fill="#9db080" stroke="#5E5242" stroke-opacity="0.42" stroke-width="0.32"></path>
<path d="M-28.08 22.01L-32.9 22.39L-32.9 19.93L-28.08 19.54Z" fill="#939e74" stroke="#5E5242" stroke-opacity="0.42" stroke-width="0.32"></path>
<path d="M-32.9 22.39L-36.42 20.45L-36.42 17.99L-32.9 19.93Z" fill="#97a67a" stroke="#5E5242" stroke-opacity="0.42" stroke-width="0.32"></path>
<path d="M-25.59 19.6L-28.08 22.01L-28.08 19.54L-25.59 17.13Z" fill="#909a71" stroke="#5E5242" stroke-opacity="0.42" stroke-width="0.32"></path>
<path d="M-28.08 19.54L-32.9 19.93L-31.18 12.98Z" fill="#9bad7e" stroke="#5E5242" stroke-opacity="0.42" stroke-width="0.32"></path>
<path d="M-32.9 19.93L-36.42 17.99L-31.18 12.98Z" fill="#9db080" stroke="#5E5242" stroke-opacity="0.42" stroke-width="0.32"></path>
<path d="M-36.42 17.99L-35.99 15.19L-31.18 12.98Z" fill="#9db080" stroke="#5E5242" stroke-opacity="0.42" stroke-width="0.32"></path>
<path d="M-27.31 14.5L-25.59 17.13L-31.18 12.98Z" fill="#94a176" stroke="#5E5242" stroke-opacity="0.42" stroke-width="0.32"></path>
<path d="M-25.59 17.13L-28.08 19.54L-31.18 12.98Z" fill="#97a579" stroke="#5E5242" stroke-opacity="0.42" stroke-width="0.32"></path>
<path d="M1.73 6L39.84 28L12.12 44L-25.98 22Z" fill="#fbf8f2" stroke="#5E5242" stroke-opacity="0.42" stroke-width="0.32"></path>
<path d="M39.84 41L12.12 57L12.12 44L39.84 28Z" fill="#d4cdc4" stroke="#5E5242" stroke-opacity="0.42" stroke-width="0.32"></path>
<path d="M12.12 57L-25.98 35L-25.98 22L12.12 44Z" fill="#eae6de" stroke="#5E5242" stroke-opacity="0.42" stroke-width="0.32"></path>
<path d="M-21.22 37.75L-21.22 24.75" stroke="#eae6de" stroke-width="0.19" fill="none"></path>
<path d="M-16.45 40.5L-16.45 27.5" stroke="#eae6de" stroke-width="0.19" fill="none"></path>
<path d="M-11.69 43.25L-11.69 30.25" stroke="#eae6de" stroke-width="0.19" fill="none"></path>
<path d="M-6.93 46L-6.93 33" stroke="#eae6de" stroke-width="0.19" fill="none"></path>
<path d="M-2.17 48.75L-2.17 35.75" stroke="#eae6de" stroke-width="0.19" fill="none"></path>
<path d="M2.6 51.5L2.6 38.5" stroke="#eae6de" stroke-width="0.19" fill="none"></path>
<path d="M7.36 54.25L7.36 41.25" stroke="#eae6de" stroke-width="0.19" fill="none"></path>
<path d="M35.07 43.75L35.07 30.75" stroke="#eae6de" stroke-width="0.19" fill="none"></path>
<path d="M30.31 46.5L30.31 33.5" stroke="#eae6de" stroke-width="0.19" fill="none"></path>
<path d="M25.55 49.25L25.55 36.25" stroke="#eae6de" stroke-width="0.19" fill="none"></path>
<path d="M20.78 52L20.78 39" stroke="#eae6de" stroke-width="0.19" fill="none"></path>
<path d="M16.02 54.75L16.02 41.75" stroke="#eae6de" stroke-width="0.19" fill="none"></path>
<path d="M1.73 3L43.3 27L12.12 45L-29.44 21Z" fill="#f4f0e8" stroke="#5E5242" stroke-opacity="0.42" stroke-width="0.32"></path>
<path d="M43.3 28L12.12 46L12.12 45L43.3 27Z" fill="#cfc8bc" stroke="#5E5242" stroke-opacity="0.42" stroke-width="0.32"></path>
<path d="M12.12 46L-29.44 22L-29.44 21L12.12 45Z" fill="#e4dfd6" stroke="#5E5242" stroke-opacity="0.42" stroke-width="0.32"></path>
<path d="M-25.98 29L12.12 51L4.33 55.5L-33.77 33.5Z" fill="#bcd2d4" stroke="#5E5242" stroke-opacity="0.42" stroke-width="0.32"></path>
<path d="M12.12 57L4.33 61.5L4.33 55.5L12.12 51Z" fill="#a6b2ae" stroke="#5E5242" stroke-opacity="0.42" stroke-width="0.32"></path>
<path d="M4.33 61.5L-33.77 39.5L-33.77 33.5L4.33 55.5Z" fill="#b3c4c4" stroke="#5E5242" stroke-opacity="0.42" stroke-width="0.32"></path>
<path d="M-30.31 41.5L-30.31 35.5" stroke="#abb9b6" stroke-width="0.19" fill="none"></path>
<path d="M-26.85 43.5L-26.85 37.5" stroke="#abb9b6" stroke-width="0.19" fill="none"></path>
<path d="M-23.38 45.5L-23.38 39.5" stroke="#abb9b6" stroke-width="0.19" fill="none"></path>
<path d="M-19.92 47.5L-19.92 41.5" stroke="#abb9b6" stroke-width="0.19" fill="none"></path>
<path d="M-16.45 49.5L-16.45 43.5" stroke="#abb9b6" stroke-width="0.19" fill="none"></path>
<path d="M-12.99 51.5L-12.99 45.5" stroke="#abb9b6" stroke-width="0.19" fill="none"></path>
<path d="M-9.53 53.5L-9.53 47.5" stroke="#abb9b6" stroke-width="0.19" fill="none"></path>
<path d="M-6.06 55.5L-6.06 49.5" stroke="#abb9b6" stroke-width="0.19" fill="none"></path>
<path d="M-2.6 57.5L-2.6 51.5" stroke="#abb9b6" stroke-width="0.19" fill="none"></path>
<path d="M0.87 59.5L0.87 53.5" stroke="#abb9b6" stroke-width="0.19" fill="none"></path>
<path d="M8.66 59L8.66 53" stroke="#abb9b6" stroke-width="0.19" fill="none"></path>
<path d="M5.2 61L5.2 55" stroke="#abb9b6" stroke-width="0.19" fill="none"></path>
<path d="M-26.85 25.6L16.45 50.6L5.2 57.1L-38.11 32.1Z" fill="#fbf8f2" stroke="#5E5242" stroke-opacity="0.42" stroke-width="0.32"></path>
<path d="M16.45 51.5L5.2 58L5.2 57.1L16.45 50.6Z" fill="#d4cdc4" stroke="#5E5242" stroke-opacity="0.42" stroke-width="0.32"></path>
<path d="M5.2 58L-38.11 33L-38.11 32.1L5.2 57.1Z" fill="#eae6de" stroke="#5E5242" stroke-opacity="0.42" stroke-width="0.32"></path>
<path d="M60.62 -1L73.61 6.5L60.62 14L47.63 6.5Z" fill="#cf8c6b" stroke="#5E5242" stroke-opacity="0.42" stroke-width="0.32"></path>
<path d="M73.61 46.5L60.62 54L60.62 14L73.61 6.5Z" fill="#b48062" stroke="#5E5242" stroke-opacity="0.42" stroke-width="0.32"></path>
<path d="M60.62 54L47.63 46.5L47.63 6.5L60.62 14Z" fill="#c48767" stroke="#5E5242" stroke-opacity="0.42" stroke-width="0.32"></path>
<path d="M47.63 43.7L60.62 51.2" stroke="#c28667" stroke-width="0.19" fill="none"></path>
<path d="M73.61 43.7L60.62 51.2" stroke="#c28667" stroke-width="0.19" fill="none"></path>
<path d="M47.63 40.9L60.62 48.4" stroke="#c28667" stroke-width="0.19" fill="none"></path>
<path d="M73.61 40.9L60.62 48.4" stroke="#c28667" stroke-width="0.19" fill="none"></path>
<path d="M47.63 38.1L60.62 45.6" stroke="#c28667" stroke-width="0.19" fill="none"></path>
<path d="M73.61 38.1L60.62 45.6" stroke="#c28667" stroke-width="0.19" fill="none"></path>
<path d="M47.63 35.3L60.62 42.8" stroke="#c28667" stroke-width="0.19" fill="none"></path>
<path d="M73.61 35.3L60.62 42.8" stroke="#c28667" stroke-width="0.19" fill="none"></path>
<path d="M47.63 32.5L60.62 40" stroke="#c28667" stroke-width="0.19" fill="none"></path>
<path d="M73.61 32.5L60.62 40" stroke="#c28667" stroke-width="0.19" fill="none"></path>
<path d="M47.63 29.7L60.62 37.2" stroke="#c28667" stroke-width="0.19" fill="none"></path>
<path d="M73.61 29.7L60.62 37.2" stroke="#c28667" stroke-width="0.19" fill="none"></path>
<path d="M47.63 26.9L60.62 34.4" stroke="#c28667" stroke-width="0.19" fill="none"></path>
<path d="M73.61 26.9L60.62 34.4" stroke="#c28667" stroke-width="0.19" fill="none"></path>
<path d="M47.63 24.1L60.62 31.6" stroke="#c28667" stroke-width="0.19" fill="none"></path>
<path d="M73.61 24.1L60.62 31.6" stroke="#c28667" stroke-width="0.19" fill="none"></path>
<path d="M47.63 21.3L60.62 28.8" stroke="#c28667" stroke-width="0.19" fill="none"></path>
<path d="M73.61 21.3L60.62 28.8" stroke="#c28667" stroke-width="0.19" fill="none"></path>
<path d="M47.63 18.5L60.62 26" stroke="#c28667" stroke-width="0.19" fill="none"></path>
<path d="M73.61 18.5L60.62 26" stroke="#c28667" stroke-width="0.19" fill="none"></path>
<path d="M47.63 15.7L60.62 23.2" stroke="#c28667" stroke-width="0.19" fill="none"></path>
<path d="M73.61 15.7L60.62 23.2" stroke="#c28667" stroke-width="0.19" fill="none"></path>
<path d="M47.63 12.9L60.62 20.4" stroke="#c28667" stroke-width="0.19" fill="none"></path>
<path d="M73.61 12.9L60.62 20.4" stroke="#c28667" stroke-width="0.19" fill="none"></path>
<path d="M47.63 10.1L60.62 17.6" stroke="#c28667" stroke-width="0.19" fill="none"></path>
<path d="M73.61 10.1L60.62 17.6" stroke="#c28667" stroke-width="0.19" fill="none"></path>
<path d="M47.63 7.3L60.62 14.8" stroke="#c28667" stroke-width="0.19" fill="none"></path>
<path d="M73.61 7.3L60.62 14.8" stroke="#c28667" stroke-width="0.19" fill="none"></path>
<path d="M60.62 0.9L65.82 3.9L60.62 6.9L55.43 3.9Z" fill="#cf8c6b" stroke="#5E5242" stroke-opacity="0.42" stroke-width="0.32"></path>
<path d="M65.82 6.5L60.62 9.5L60.62 6.9L65.82 3.9Z" fill="#b48062" stroke="#5E5242" stroke-opacity="0.42" stroke-width="0.32"></path>
<path d="M60.62 9.5L55.43 6.5L55.43 3.9L60.62 6.9Z" fill="#c48767" stroke="#5E5242" stroke-opacity="0.42" stroke-width="0.32"></path>
<path d="M50.23 48L50.23 8" stroke="#ba8264" stroke-width="0.19" fill="none"></path>
<path d="M54.13 50.25L54.13 10.25" stroke="#ba8264" stroke-width="0.19" fill="none"></path>
<path d="M58.02 52.5L58.02 12.5" stroke="#ba8264" stroke-width="0.19" fill="none"></path>
<path d="M67.12 50.25L67.12 10.25" stroke="#ba8264" stroke-width="0.19" fill="none"></path>
<path d="M34.64 75.95L35.56 76.48L34.64 77.01L33.73 76.48Z" fill="#8a7458" stroke="#5E5242" stroke-opacity="0.42" stroke-width="0.32"></path>
<path d="M35.56 80L34.64 80.53L34.64 77.01L35.56 76.48Z" fill="#826e55" stroke="#5E5242" stroke-opacity="0.42" stroke-width="0.32"></path>
<path d="M34.64 80.53L33.73 80L33.73 76.48L34.64 77.01Z" fill="#877257" stroke="#5E5242" stroke-opacity="0.42" stroke-width="0.32"></path>
<path d="M37.74 76.01L32.92 76.39L29.4 74.45L29.82 71.66L33.88 70.11L38.51 70.97L40.22 73.6Z" fill="#9db080" stroke="#5E5242" stroke-opacity="0.42" stroke-width="0.32"></path>
<path d="M37.74 76.01L32.92 76.39L34.64 77.18Z" fill="#909a71" stroke="#5E5242" stroke-opacity="0.42" stroke-width="0.32"></path>
<path d="M37.74 73.54L32.92 73.93L29.4 71.99L29.82 69.19L33.88 67.64L38.51 68.5L40.22 71.13Z" fill="#9db080" stroke="#5E5242" stroke-opacity="0.42" stroke-width="0.32"></path>
<path d="M37.74 76.01L32.92 76.39L32.92 73.93L37.74 73.54Z" fill="#939e74" stroke="#5E5242" stroke-opacity="0.42" stroke-width="0.32"></path>
<path d="M32.92 76.39L29.4 74.45L29.4 71.99L32.92 73.93Z" fill="#97a67a" stroke="#5E5242" stroke-opacity="0.42" stroke-width="0.32"></path>
<path d="M40.22 73.6L37.74 76.01L37.74 73.54L40.22 71.13Z" fill="#909a71" stroke="#5E5242" stroke-opacity="0.42" stroke-width="0.32"></path>
<path d="M37.74 73.54L32.92 73.93L34.64 66.98Z" fill="#9bad7e" stroke="#5E5242" stroke-opacity="0.42" stroke-width="0.32"></path>
<path d="M32.92 73.93L29.4 71.99L34.64 66.98Z" fill="#9db080" stroke="#5E5242" stroke-opacity="0.42" stroke-width="0.32"></path>
<path d="M29.4 71.99L29.82 69.19L34.64 66.98Z" fill="#9db080" stroke="#5E5242" stroke-opacity="0.42" stroke-width="0.32"></path>
<path d="M38.51 68.5L40.22 71.13L34.64 66.98Z" fill="#94a176" stroke="#5E5242" stroke-opacity="0.42" stroke-width="0.32"></path>
<path d="M40.22 71.13L37.74 73.54L34.64 66.98Z" fill="#97a579" stroke="#5E5242" stroke-opacity="0.42" stroke-width="0.32"></path>
<path d="M10.39 85.95L11.31 86.48L10.39 87.01L9.48 86.48Z" fill="#8a7458" stroke="#5E5242" stroke-opacity="0.42" stroke-width="0.32"></path>
<path d="M11.31 90L10.39 90.53L10.39 87.01L11.31 86.48Z" fill="#826e55" stroke="#5E5242" stroke-opacity="0.42" stroke-width="0.32"></path>
<path d="M10.39 90.53L9.48 90L9.48 86.48L10.39 87.01Z" fill="#877257" stroke="#5E5242" stroke-opacity="0.42" stroke-width="0.32"></path>
<path d="M13.49 86.01L8.67 86.39L5.15 84.45L5.58 81.66L9.63 80.11L14.26 80.97L15.98 83.6Z" fill="#9db080" stroke="#5E5242" stroke-opacity="0.42" stroke-width="0.32"></path>
<path d="M13.49 86.01L8.67 86.39L10.39 87.18Z" fill="#909a71" stroke="#5E5242" stroke-opacity="0.42" stroke-width="0.32"></path>
<path d="M13.49 83.54L8.67 83.93L5.15 81.99L5.58 79.19L9.63 77.64L14.26 78.5L15.98 81.13Z" fill="#9db080" stroke="#5E5242" stroke-opacity="0.42" stroke-width="0.32"></path>
<path d="M13.49 86.01L8.67 86.39L8.67 83.93L13.49 83.54Z" fill="#939e74" stroke="#5E5242" stroke-opacity="0.42" stroke-width="0.32"></path>
<path d="M8.67 86.39L5.15 84.45L5.15 81.99L8.67 83.93Z" fill="#97a67a" stroke="#5E5242" stroke-opacity="0.42" stroke-width="0.32"></path>
<path d="M15.98 83.6L13.49 86.01L13.49 83.54L15.98 81.13Z" fill="#909a71" stroke="#5E5242" stroke-opacity="0.42" stroke-width="0.32"></path>
<path d="M13.49 83.54L8.67 83.93L10.39 76.98Z" fill="#9bad7e" stroke="#5E5242" stroke-opacity="0.42" stroke-width="0.32"></path>
<path d="M8.67 83.93L5.15 81.99L10.39 76.98Z" fill="#9db080" stroke="#5E5242" stroke-opacity="0.42" stroke-width="0.32"></path>
<path d="M5.15 81.99L5.58 79.19L10.39 76.98Z" fill="#9db080" stroke="#5E5242" stroke-opacity="0.42" stroke-width="0.32"></path>
<path d="M14.26 78.5L15.98 81.13L10.39 76.98Z" fill="#94a176" stroke="#5E5242" stroke-opacity="0.42" stroke-width="0.32"></path>
<path d="M15.98 81.13L13.49 83.54L10.39 76.98Z" fill="#97a579" stroke="#5E5242" stroke-opacity="0.42" stroke-width="0.32"></path>
</svg>