<svg xmlns="http://www.w3.org/2000/svg" viewBox="-50 -82 100 114" width="224" height="255" stroke-linejoin="round">
<path d="M-10.83 -12.77L-0.93 -15.63L31.98 3.37L20.72 9.87L10.83 12.73L-22.08 -6.27Z" fill="#6f604c" fill-opacity="0.18"/>
<path d="M-10.83 -39.75L22.08 -20.75L10.83 -14.25L-22.08 -33.25Z" fill="#e2e6e8" stroke="#5E5242" stroke-opacity="0.42" stroke-width="0.4"/>
<path d="M22.08 6.25L10.83 12.75L10.83 -14.25L22.08 -20.75Z" fill="#c2c0bc" stroke="#5E5242" stroke-opacity="0.42" stroke-width="0.4"/>
<path d="M10.83 12.75L-22.08 -6.25L-22.08 -33.25L10.83 -14.25Z" fill="#d4d6d6" stroke="#5E5242" stroke-opacity="0.42" stroke-width="0.4"/>
<path d="M-22.08 -9.05L10.83 9.95" stroke="#d1d2d1" stroke-width="0.24" fill="none"/>
<path d="M22.08 3.45L10.83 9.95" stroke="#d1d2d1" stroke-width="0.24" fill="none"/>
<path d="M-22.08 -11.85L10.83 7.15" stroke="#d1d2d1" stroke-width="0.24" fill="none"/>
<path d="M22.08 0.65L10.83 7.15" stroke="#d1d2d1" stroke-width="0.24" fill="none"/>
<path d="M-22.08 -14.65L10.83 4.35" stroke="#d1d2d1" stroke-width="0.24" fill="none"/>
<path d="M22.08 -2.15L10.83 4.35" stroke="#d1d2d1" stroke-width="0.24" fill="none"/>
<path d="M-22.08 -17.45L10.83 1.55" stroke="#d1d2d1" stroke-width="0.24" fill="none"/>
<path d="M22.08 -4.95L10.83 1.55" stroke="#d1d2d1" stroke-width="0.24" fill="none"/>
<path d="M-22.08 -20.25L10.83 -1.25" stroke="#d1d2d1" stroke-width="0.24" fill="none"/>
<path d="M22.08 -7.75L10.83 -1.25" stroke="#d1d2d1" stroke-width="0.24" fill="none"/>
<path d="M-22.08 -23.05L10.83 -4.05" stroke="#d1d2d1" stroke-width="0.24" fill="none"/>
<path d="M22.08 -10.55L10.83 -4.05" stroke="#d1d2d1" stroke-width="0.24" fill="none"/>
<path d="M-22.08 -25.85L10.83 -6.85" stroke="#d1d2d1" stroke-width="0.24" fill="none"/>
<path d="M22.08 -13.35L10.83 -6.85" stroke="#d1d2d1" stroke-width="0.24" fill="none"/>
<path d="M-22.08 -28.65L10.83 -9.65" stroke="#d1d2d1" stroke-width="0.24" fill="none"/>
<path d="M22.08 -16.15L10.83 -9.65" stroke="#d1d2d1" stroke-width="0.24" fill="none"/>
<path d="M-22.08 -31.45L10.83 -12.45" stroke="#d1d2d1" stroke-width="0.24" fill="none"/>
<path d="M22.08 -18.95L10.83 -12.45" stroke="#d1d2d1" stroke-width="0.24" fill="none"/>
<path d="M-16.02 -28.75L-14.29 -27.75L-14.59 -27.57L-16.32 -28.57Z" fill="#bcd2d4" stroke="#5E5242" stroke-opacity="0.42" stroke-width="0.4"/>
<path d="M-14.29 -2.75L-14.59 -2.58L-14.59 -27.57L-14.29 -27.75Z" fill="#a6b2ae" stroke="#5E5242" stroke-opacity="0.42" stroke-width="0.4"/>
<path d="M-14.59 -2.58L-16.32 -3.58L-16.32 -28.57L-14.59 -27.57Z" fill="#b3c4c4" stroke="#5E5242" stroke-opacity="0.42" stroke-width="0.4"/>
<path d="M-6.5 -23.25L-4.76 -22.25L-5.07 -22.07L-6.8 -23.07Z" fill="#bcd2d4" stroke="#5E5242" stroke-opacity="0.42" stroke-width="0.4"/>
<path d="M-4.76 2.75L-5.07 2.92L-5.07 -22.07L-4.76 -22.25Z" fill="#a6b2ae" stroke="#5E5242" stroke-opacity="0.42" stroke-width="0.4"/>
<path d="M-5.07 2.92L-6.8 1.92L-6.8 -23.07L-5.07 -22.07Z" fill="#b3c4c4" stroke="#5E5242" stroke-opacity="0.42" stroke-width="0.4"/>
<path d="M3.03 -17.75L4.76 -16.75L4.46 -16.57L2.73 -17.57Z" fill="#bcd2d4" stroke="#5E5242" stroke-opacity="0.42" stroke-width="0.4"/>
<path d="M4.76 8.25L4.46 8.43L4.46 -16.57L4.76 -16.75Z" fill="#a6b2ae" stroke="#5E5242" stroke-opacity="0.42" stroke-width="0.4"/>
<path d="M4.46 8.43L2.73 7.43L2.73 -17.57L4.46 -16.57Z" fill="#b3c4c4" stroke="#5E5242" stroke-opacity="0.42" stroke-width="0.4"/>
<path d="M-1.3 -32.65L5.63 -28.65L1.3 -26.15L-5.63 -30.15Z" fill="#dcdfe0" stroke="#5E5242" stroke-opacity="0.42" stroke-width="0.4"/>
<path d="M5.63 -26.25L1.3 -23.75L1.3 -26.15L5.63 -28.65Z" fill="#bdbbb7" stroke="#5E5242" stroke-opacity="0.42" stroke-width="0.4"/>
<path d="M1.3 -23.75L-5.63 -27.75L-5.63 -30.15L1.3 -26.15Z" fill="#cfd0ce" stroke="#5E5242" stroke-opacity="0.42" stroke-width="0.4"/>
</svg>
