<svg xmlns="http://www.w3.org/2000/svg" viewBox="-50 -82 100 114" width="224" height="255" stroke-linejoin="round">
<path d="M-10.83 -12.77L-0.93 -15.63L31.98 3.37L20.72 9.87L10.83 12.73L-22.08 -6.27Z" fill="#6f604c" fill-opacity="0.18"/>
<path d="M-10.83 -39.75L22.08 -20.75L11.69 -14.75L-21.22 -33.75Z" fill="#fbf8f2" stroke="#5E5242" stroke-opacity="0.42" stroke-width="0.4"/>
<path d="M22.08 6.25L11.69 12.25L11.69 -14.75L22.08 -20.75Z" fill="#d4cdc4" stroke="#5E5242" stroke-opacity="0.42" stroke-width="0.4"/>
<path d="M11.69 12.25L-21.22 -6.75L-21.22 -33.75L11.69 -14.75Z" fill="#eae6de" stroke="#5E5242" stroke-opacity="0.42" stroke-width="0.4"/>
<path d="M-21.22 -9.55L11.69 9.45" stroke="#e5e0d7" stroke-width="0.24" fill="none"/>
<path d="M22.08 3.45L11.69 9.45" stroke="#e5e0d7" stroke-width="0.24" fill="none"/>
<path d="M-21.22 -12.35L11.69 6.65" stroke="#e5e0d7" stroke-width="0.24" fill="none"/>
<path d="M22.08 0.65L11.69 6.65" stroke="#e5e0d7" stroke-width="0.24" fill="none"/>
<path d="M-21.22 -15.15L11.69 3.85" stroke="#e5e0d7" stroke-width="0.24" fill="none"/>
<path d="M22.08 -2.15L11.69 3.85" stroke="#e5e0d7" stroke-width="0.24" fill="none"/>
<path d="M-21.22 -17.95L11.69 1.05" stroke="#e5e0d7" stroke-width="0.24" fill="none"/>
<path d="M22.08 -4.95L11.69 1.05" stroke="#e5e0d7" stroke-width="0.24" fill="none"/>
<path d="M-21.22 -20.75L11.69 -1.75" stroke="#e5e0d7" stroke-width="0.24" fill="none"/>
<path d="M22.08 -7.75L11.69 -1.75" stroke="#e5e0d7" stroke-width="0.24" fill="none"/>
<path d="M-21.22 -23.55L11.69 -4.55" stroke="#e5e0d7" stroke-width="0.24" fill="none"/>
<path d="M22.08 -10.55L11.69 -4.55" stroke="#e5e0d7" stroke-width="0.24" fill="none"/>
<path d="M-21.22 -26.35L11.69 -7.35" stroke="#e5e0d7" stroke-width="0.24" fill="none"/>
<path d="M22.08 -13.35L11.69 -7.35" stroke="#e5e0d7" stroke-width="0.24" fill="none"/>
<path d="M-21.22 -29.15L11.69 -10.15" stroke="#e5e0d7" stroke-width="0.24" fill="none"/>
<path d="M22.08 -16.15L11.69 -10.15" stroke="#e5e0d7" stroke-width="0.24" fill="none"/>
<path d="M-21.22 -31.95L11.69 -12.95" stroke="#e5e0d7" stroke-width="0.24" fill="none"/>
<path d="M22.08 -18.95L11.69 -12.95" stroke="#e5e0d7" stroke-width="0.24" fill="none"/>
<path d="M-19.05 -32.1L-15.93 -30.3L-16.8 -29.8L-19.92 -31.6Z" fill="#f1ede6" stroke="#5E5242" stroke-opacity="0.42" stroke-width="0.4"/>
<path d="M-15.93 -4.3L-16.8 -3.8L-16.8 -29.8L-15.93 -30.3Z" fill="#cdc6bb" stroke="#5E5242" stroke-opacity="0.42" stroke-width="0.4"/>
<path d="M-16.8 -3.8L-19.92 -5.6L-19.92 -31.6L-16.8 -29.8Z" fill="#e2dcd4" stroke="#5E5242" stroke-opacity="0.42" stroke-width="0.4"/>
<path d="M-12.56 -28.35L-9.44 -26.55L-10.31 -26.05L-13.42 -27.85Z" fill="#f1ede6" stroke="#5E5242" stroke-opacity="0.42" stroke-width="0.4"/>
<path d="M-9.44 -0.55L-10.31 -0.05L-10.31 -26.05L-9.44 -26.55Z" fill="#cdc6bb" stroke="#5E5242" stroke-opacity="0.42" stroke-width="0.4"/>
<path d="M-10.31 -0.05L-13.42 -1.85L-13.42 -27.85L-10.31 -26.05Z" fill="#e2dcd4" stroke="#5E5242" stroke-opacity="0.42" stroke-width="0.4"/>
<path d="M-6.06 -24.6L-2.94 -22.8L-3.81 -22.3L-6.93 -24.1Z" fill="#f1ede6" stroke="#5E5242" stroke-opacity="0.42" stroke-width="0.4"/>
<path d="M-2.94 3.2L-3.81 3.7L-3.81 -22.3L-2.94 -22.8Z" fill="#cdc6bb" stroke="#5E5242" stroke-opacity="0.42" stroke-width="0.4"/>
<path d="M-3.81 3.7L-6.93 1.9L-6.93 -24.1L-3.81 -22.3Z" fill="#e2dcd4" stroke="#5E5242" stroke-opacity="0.42" stroke-width="0.4"/>
<path d="M0.43 -20.85L3.55 -19.05L2.68 -18.55L-0.43 -20.35Z" fill="#f1ede6" stroke="#5E5242" stroke-opacity="0.42" stroke-width="0.4"/>
<path d="M3.55 6.95L2.68 7.45L2.68 -18.55L3.55 -19.05Z" fill="#cdc6bb" stroke="#5E5242" stroke-opacity="0.42" stroke-width="0.4"/>
<path d="M2.68 7.45L-0.43 5.65L-0.43 -20.35L2.68 -18.55Z" fill="#e2dcd4" stroke="#5E5242" stroke-opacity="0.42" stroke-width="0.4"/>
<path d="M6.93 -17.1L10.05 -15.3L9.18 -14.8L6.06 -16.6Z" fill="#f1ede6" stroke="#5E5242" stroke-opacity="0.42" stroke-width="0.4"/>
<path d="M10.05 10.7L9.18 11.2L9.18 -14.8L10.05 -15.3Z" fill="#cdc6bb" stroke="#5E5242" stroke-opacity="0.42" stroke-width="0.4"/>
<path d="M9.18 11.2L6.06 9.4L6.06 -16.6L9.18 -14.8Z" fill="#e2dcd4" stroke="#5E5242" stroke-opacity="0.42" stroke-width="0.4"/>
<path d="M-1.73 -33L6.93 -28L2.6 -25.5L-6.06 -30.5Z" fill="#fbf8f2" stroke="#5E5242" stroke-opacity="0.42" stroke-width="0.4"/>
<path d="M6.93 -26L2.6 -23.5L2.6 -25.5L6.93 -28Z" fill="#d4cdc4" stroke="#5E5242" stroke-opacity="0.42" stroke-width="0.4"/>
<path d="M2.6 -23.5L-6.06 -28.5L-6.06 -30.5L2.6 -25.5Z" fill="#eae6de" stroke="#5E5242" stroke-opacity="0.42" stroke-width="0.4"/>
</svg>
