<svg xmlns="http://www.w3.org/2000/svg" viewBox="-50 -82 100 114" width="224" height="255" stroke-linejoin="round">
<path d="M10.83 -12.77L20.72 -15.63L31.98 -9.13L-0.93 9.87L-10.83 12.73L-22.08 6.23Z" fill="#6f604c" fill-opacity="0.18"/>
<path d="M10.83 -39.75L21.22 -33.75L-11.69 -14.75L-22.08 -20.75Z" fill="#fbf8f2" stroke="#5E5242" stroke-opacity="0.42" stroke-width="0.4"/>
<path d="M21.22 -6.75L-11.69 12.25L-11.69 -14.75L21.22 -33.75Z" fill="#d4cdc4" stroke="#5E5242" stroke-opacity="0.42" stroke-width="0.4"/>
<path d="M-11.69 12.25L-22.08 6.25L-22.08 -20.75L-11.69 -14.75Z" fill="#eae6de" stroke="#5E5242" stroke-opacity="0.42" stroke-width="0.4"/>
<path d="M-22.08 3.45L-11.69 9.45" stroke="#e5e0d7" stroke-width="0.24" fill="none"/>
<path d="M21.22 -9.55L-11.69 9.45" stroke="#e5e0d7" stroke-width="0.24" fill="none"/>
<path d="M-22.08 0.65L-11.69 6.65" stroke="#e5e0d7" stroke-width="0.24" fill="none"/>
<path d="M21.22 -12.35L-11.69 6.65" stroke="#e5e0d7" stroke-width="0.24" fill="none"/>
<path d="M-22.08 -2.15L-11.69 3.85" stroke="#e5e0d7" stroke-width="0.24" fill="none"/>
<path d="M21.22 -15.15L-11.69 3.85" stroke="#e5e0d7" stroke-width="0.24" fill="none"/>
<path d="M-22.08 -4.95L-11.69 1.05" stroke="#e5e0d7" stroke-width="0.24" fill="none"/>
<path d="M21.22 -17.95L-11.69 1.05" stroke="#e5e0d7" stroke-width="0.24" fill="none"/>
<path d="M-22.08 -7.75L-11.69 -1.75" stroke="#e5e0d7" stroke-width="0.24" fill="none"/>
<path d="M21.22 -20.75L-11.69 -1.75" stroke="#e5e0d7" stroke-width="0.24" fill="none"/>
<path d="M-22.08 -10.55L-11.69 -4.55" stroke="#e5e0d7" stroke-width="0.24" fill="none"/>
<path d="M21.22 -23.55L-11.69 -4.55" stroke="#e5e0d7" stroke-width="0.24" fill="none"/>
<path d="M-22.08 -13.35L-11.69 -7.35" stroke="#e5e0d7" stroke-width="0.24" fill="none"/>
<path d="M21.22 -26.35L-11.69 -7.35" stroke="#e5e0d7" stroke-width="0.24" fill="none"/>
<path d="M-22.08 -16.15L-11.69 -10.15" stroke="#e5e0d7" stroke-width="0.24" fill="none"/>
<path d="M21.22 -29.15L-11.69 -10.15" stroke="#e5e0d7" stroke-width="0.24" fill="none"/>
<path d="M-22.08 -18.95L-11.69 -12.95" stroke="#e5e0d7" stroke-width="0.24" fill="none"/>
<path d="M21.22 -31.95L-11.69 -12.95" stroke="#e5e0d7" stroke-width="0.24" fill="none"/>
<path d="M19.05 -32.1L19.92 -31.6L16.8 -29.8L15.93 -30.3Z" fill="#f1ede6" stroke="#5E5242" stroke-opacity="0.42" stroke-width="0.4"/>
<path d="M19.92 -5.6L16.8 -3.8L16.8 -29.8L19.92 -31.6Z" fill="#cdc6bb" stroke="#5E5242" stroke-opacity="0.42" stroke-width="0.4"/>
<path d="M16.8 -3.8L15.93 -4.3L15.93 -30.3L16.8 -29.8Z" fill="#e2dcd4" stroke="#5E5242" stroke-opacity="0.42" stroke-width="0.4"/>
<path d="M12.56 -28.35L13.42 -27.85L10.31 -26.05L9.44 -26.55Z" fill="#f1ede6" stroke="#5E5242" stroke-opacity="0.42" stroke-width="0.4"/>
<path d="M13.42 -1.85L10.31 -0.05L10.31 -26.05L13.42 -27.85Z" fill="#cdc6bb" stroke="#5E5242" stroke-opacity="0.42" stroke-width="0.4"/>
<path d="M10.31 -0.05L9.44 -0.55L9.44 -26.55L10.31 -26.05Z" fill="#e2dcd4" stroke="#5E5242" stroke-opacity="0.42" stroke-width="0.4"/>
<path d="M6.06 -24.6L6.93 -24.1L3.81 -22.3L2.94 -22.8Z" fill="#f1ede6" stroke="#5E5242" stroke-opacity="0.42" stroke-width="0.4"/>
<path d="M6.93 1.9L3.81 3.7L3.81 -22.3L6.93 -24.1Z" fill="#cdc6bb" stroke="#5E5242" stroke-opacity="0.42" stroke-width="0.4"/>
<path d="M3.81 3.7L2.94 3.2L2.94 -22.8L3.81 -22.3Z" fill="#e2dcd4" stroke="#5E5242" stroke-opacity="0.42" stroke-width="0.4"/>
<path d="M-0.43 -20.85L0.43 -20.35L-2.68 -18.55L-3.55 -19.05Z" fill="#f1ede6" stroke="#5E5242" stroke-opacity="0.42" stroke-width="0.4"/>
<path d="M0.43 5.65L-2.68 7.45L-2.68 -18.55L0.43 -20.35Z" fill="#cdc6bb" stroke="#5E5242" stroke-opacity="0.42" stroke-width="0.4"/>
<path d="M-2.68 7.45L-3.55 6.95L-3.55 -19.05L-2.68 -18.55Z" fill="#e2dcd4" stroke="#5E5242" stroke-opacity="0.42" stroke-width="0.4"/>
<path d="M-6.93 -17.1L-6.06 -16.6L-9.18 -14.8L-10.05 -15.3Z" fill="#f1ede6" stroke="#5E5242" stroke-opacity="0.42" stroke-width="0.4"/>
<path d="M-6.06 9.4L-9.18 11.2L-9.18 -14.8L-6.06 -16.6Z" fill="#cdc6bb" stroke="#5E5242" stroke-opacity="0.42" stroke-width="0.4"/>
<path d="M-9.18 11.2L-10.05 10.7L-10.05 -15.3L-9.18 -14.8Z" fill="#e2dcd4" stroke="#5E5242" stroke-opacity="0.42" stroke-width="0.4"/>
<path d="M1.73 -33L6.06 -30.5L-2.6 -25.5L-6.93 -28Z" fill="#fbf8f2" stroke="#5E5242" stroke-opacity="0.42" stroke-width="0.4"/>
<path d="M6.06 -28.5L-2.6 -23.5L-2.6 -25.5L6.06 -30.5Z" fill="#d4cdc4" stroke="#5E5242" stroke-opacity="0.42" stroke-width="0.4"/>
<path d="M-2.6 -23.5L-6.93 -26L-6.93 -28L-2.6 -25.5Z" fill="#eae6de" stroke="#5E5242" stroke-opacity="0.42" stroke-width="0.4"/>
</svg>
